%TF.GenerationSoftware,KiCad,Pcbnew,5.1.6-c6e7f7d~87~ubuntu18.04.1*%
%TF.CreationDate,2020-07-27T13:15:01+09:00*%
%TF.ProjectId,001,3030312e-6b69-4636-9164-5f7063625858,rev?*%
%TF.SameCoordinates,Original*%
%TF.FileFunction,Soldermask,Bot*%
%TF.FilePolarity,Negative*%
%FSLAX46Y46*%
G04 Gerber Fmt 4.6, Leading zero omitted, Abs format (unit mm)*
G04 Created by KiCad (PCBNEW 5.1.6-c6e7f7d~87~ubuntu18.04.1) date 2020-07-27 13:15:01*
%MOMM*%
%LPD*%
G01*
G04 APERTURE LIST*
%ADD10O,2.300000X2.300000*%
%ADD11R,2.300000X2.300000*%
%ADD12C,1.900000*%
%ADD13C,3.300000*%
%ADD14C,1.751000*%
%ADD15C,1.711200*%
%ADD16R,1.711200X1.711200*%
%ADD17C,1.511200*%
%ADD18R,1.511200X1.511200*%
%ADD19C,1.553200*%
%ADD20R,1.553200X1.553200*%
%ADD21C,1.700000*%
%ADD22R,1.700000X1.700000*%
%ADD23O,1.700000X1.700000*%
G04 APERTURE END LIST*
D10*
%TO.C,D5*%
X138430000Y-113030000D03*
D11*
X138430000Y-123190000D03*
%TD*%
D10*
%TO.C,D4*%
X149860000Y-113030000D03*
D11*
X149860000Y-123190000D03*
%TD*%
D10*
%TO.C,D3*%
X161290000Y-113030000D03*
D11*
X161290000Y-123190000D03*
%TD*%
D10*
%TO.C,D2*%
X165176200Y-77495400D03*
D11*
X165176200Y-87655400D03*
%TD*%
D10*
%TO.C,D1*%
X161290000Y-77470000D03*
D11*
X161290000Y-87630000D03*
%TD*%
D12*
%TO.C,RV6*%
X128444800Y-140951600D03*
X129844800Y-133451600D03*
%TD*%
D13*
%TO.C,REF\u002A\u002A*%
X124536100Y-127858600D03*
%TD*%
D12*
%TO.C,RV1*%
X159428800Y-126971600D03*
X166928800Y-128371600D03*
%TD*%
%TO.C,RV2*%
X157505400Y-140919200D03*
X158905400Y-133419200D03*
%TD*%
%TO.C,RV3*%
X144874600Y-127022400D03*
X152374600Y-128422400D03*
%TD*%
%TO.C,RV4*%
X142313200Y-140977000D03*
X143713200Y-133477000D03*
%TD*%
%TO.C,RV5*%
X130777600Y-126997000D03*
X138277600Y-128397000D03*
%TD*%
D13*
%TO.C,REF\u002A\u002A*%
X172796100Y-127858600D03*
%TD*%
%TO.C,REF\u002A\u002A*%
X124536100Y-69438600D03*
%TD*%
%TO.C,REF\u002A\u002A*%
X172796100Y-69438600D03*
%TD*%
D14*
%TO.C,M1*%
X157556100Y-108808600D03*
X142316100Y-108808600D03*
X142316100Y-68168600D03*
X157556100Y-68168600D03*
D15*
X142316100Y-70708600D03*
X142316100Y-73248600D03*
X142316100Y-75788600D03*
X157556100Y-70708600D03*
X157556100Y-73248600D03*
X157556100Y-75788600D03*
X142316100Y-91028600D03*
X142316100Y-83408600D03*
X142316100Y-78328600D03*
X142316100Y-80868600D03*
X142316100Y-85948600D03*
X142316100Y-88488600D03*
X142316100Y-93568600D03*
X142316100Y-96108600D03*
X142316100Y-98648600D03*
X142316100Y-101188600D03*
X142316100Y-103728600D03*
X142316100Y-106268600D03*
X157556100Y-78328600D03*
X157556100Y-80868600D03*
X157556100Y-83408600D03*
X157556100Y-85948600D03*
X157556100Y-88488600D03*
X157556100Y-91028600D03*
X157556100Y-93568600D03*
X157556100Y-96108600D03*
X157556100Y-98648600D03*
X157556100Y-101188600D03*
X157556100Y-103728600D03*
D16*
X157556100Y-106268600D03*
%TD*%
D17*
%TO.C,CN1*%
X171526100Y-78328600D03*
D18*
X171526100Y-80868600D03*
%TD*%
D17*
%TO.C,CN5*%
X166624000Y-135478600D03*
D18*
X164084000Y-135478600D03*
%TD*%
D17*
%TO.C,CN6*%
X151206100Y-135478600D03*
D18*
X148666100Y-135478600D03*
%TD*%
D17*
%TO.C,CN3*%
X170256100Y-118968600D03*
X170256100Y-116428600D03*
X170256100Y-113888600D03*
X170256100Y-111348600D03*
X170256100Y-108808600D03*
X170256100Y-106268600D03*
X170256100Y-103728600D03*
X170256100Y-101188600D03*
X170256100Y-98648600D03*
D18*
X170256100Y-96108600D03*
%TD*%
D17*
%TO.C,CN2*%
X171526100Y-87218600D03*
D18*
X171526100Y-89758600D03*
%TD*%
D17*
%TO.C,CN8*%
X125806100Y-91028600D03*
D18*
X125806100Y-88488600D03*
%TD*%
D19*
%TO.C,U1*%
X148666100Y-84678600D03*
X151206100Y-84678600D03*
X151206100Y-92298600D03*
D20*
X148666100Y-92298600D03*
%TD*%
D19*
%TO.C,U2*%
X148666100Y-99918600D03*
X151206100Y-99918600D03*
X151206100Y-107538600D03*
D20*
X148666100Y-107538600D03*
%TD*%
D17*
%TO.C,CN4*%
X127076100Y-98648600D03*
X127076100Y-101188600D03*
X127076100Y-103728600D03*
D18*
X127076100Y-106268600D03*
%TD*%
D17*
%TO.C,CN9*%
X134696100Y-87218600D03*
D18*
X134696100Y-84678600D03*
%TD*%
D17*
%TO.C,CN11*%
X134696100Y-75788600D03*
D18*
X134696100Y-73248600D03*
%TD*%
D17*
%TO.C,CN12*%
X125806100Y-118968600D03*
X125806100Y-116428600D03*
D18*
X125806100Y-113888600D03*
%TD*%
D19*
%TO.C,U3*%
X148666100Y-70708600D03*
X151206100Y-70708600D03*
X151206100Y-78328600D03*
D20*
X148666100Y-78328600D03*
%TD*%
D17*
%TO.C,CN7*%
X137236100Y-135478600D03*
D18*
X134696100Y-135478600D03*
%TD*%
D17*
%TO.C,CN10*%
X125806100Y-79598600D03*
D18*
X125806100Y-77058600D03*
%TD*%
D21*
%TO.C,C2*%
X163576000Y-68580000D03*
X166076000Y-68580000D03*
%TD*%
D22*
%TO.C,C1*%
X163830000Y-73152000D03*
D21*
X165830000Y-73152000D03*
%TD*%
D23*
%TO.C,R1*%
X156286100Y-112522000D03*
D21*
X156286100Y-122682000D03*
%TD*%
%TO.C,R2*%
X144780000Y-122682000D03*
D23*
X144780000Y-112522000D03*
%TD*%
D21*
%TO.C,R3*%
X133426100Y-122936000D03*
D23*
X133426100Y-112776000D03*
%TD*%
M02*
