M48
; DRILL file {KiCad 5.1.6-c6e7f7d~87~ubuntu18.04.1} date Mon Jul 27 12:59:03 2020
; FORMAT={-:-/ absolute / inch / decimal}
; #@! TF.CreationDate,2020-07-27T12:59:03+09:00
; #@! TF.GenerationSoftware,Kicad,Pcbnew,5.1.6-c6e7f7d~87~ubuntu18.04.1
; #@! TF.FileFunction,Plated,1,2,PTH
FMAT,2
INCH
T1C0.0315
T2C0.0335
T3C0.0394
T4C0.0433
%
G90
G05
T1
X5.303Y-3.3338
X5.303Y-3.4338
X6.45Y-2.88
X6.5287Y-2.88
X5.6029Y-5.5503
X5.658Y-5.255
X6.44Y-2.7
X6.5384Y-2.7
X6.153Y-4.43
X6.153Y-4.83
X5.003Y-3.8838
X5.003Y-3.9838
X5.003Y-4.0838
X5.003Y-4.1838
X6.2767Y-4.9989
X6.572Y-5.054
X6.201Y-5.548
X6.2561Y-5.2527
X4.953Y-3.4838
X4.953Y-3.5838
X6.46Y-5.3338
X6.56Y-5.3338
X5.7Y-4.43
X5.7Y-4.83
X6.753Y-3.0838
X6.753Y-3.1838
X5.7037Y-5.0009
X5.999Y-5.056
X5.253Y-4.44
X5.253Y-4.84
X5.303Y-5.3338
X5.403Y-5.3338
X5.853Y-5.3338
X5.953Y-5.3338
X4.953Y-4.4838
X4.953Y-4.5838
X4.953Y-4.6838
X4.953Y-3.0338
X4.953Y-3.1338
X6.703Y-3.7838
X6.703Y-3.8838
X6.703Y-3.9838
X6.703Y-4.0838
X6.703Y-4.1838
X6.703Y-4.2838
X6.703Y-4.3838
X6.703Y-4.4838
X6.703Y-4.5838
X6.703Y-4.6838
X5.0569Y-5.5493
X5.112Y-5.254
X5.1487Y-4.9999
X5.444Y-5.055
X6.753Y-3.4338
X6.753Y-3.5338
X5.303Y-2.8838
X5.303Y-2.9838
T2
X5.853Y-2.7838
X5.853Y-3.0838
X5.953Y-2.7838
X5.953Y-3.0838
X5.853Y-3.9338
X5.853Y-4.2338
X5.953Y-3.9338
X5.953Y-4.2338
X5.853Y-3.3338
X5.853Y-3.6338
X5.953Y-3.3338
X5.953Y-3.6338
T3
X5.603Y-2.7838
X5.603Y-2.8838
X5.603Y-2.9838
X5.603Y-3.0838
X5.603Y-3.1838
X5.603Y-3.2838
X5.603Y-3.3838
X5.603Y-3.4838
X5.603Y-3.5838
X5.603Y-3.6838
X5.603Y-3.7838
X5.603Y-3.8838
X5.603Y-3.9838
X5.603Y-4.0838
X5.603Y-4.1838
X6.203Y-2.7838
X6.203Y-2.8838
X6.203Y-2.9838
X6.203Y-3.0838
X6.203Y-3.1838
X6.203Y-3.2838
X6.203Y-3.3838
X6.203Y-3.4838
X6.203Y-3.5838
X6.203Y-3.6838
X6.203Y-3.7838
X6.203Y-3.8838
X6.203Y-3.9838
X6.203Y-4.0838
X6.203Y-4.1838
T4
X6.503Y-3.051
X6.503Y-3.451
X6.35Y-3.05
X6.35Y-3.45
X5.9Y-4.45
X5.9Y-4.85
X5.45Y-4.45
X5.45Y-4.85
X6.35Y-4.45
X6.35Y-4.85
T0
M30
