G04 EAGLE Gerber RS-274X export*
G75*
%MOMM*%
%FSLAX34Y34*%
%LPD*%
%INBottom Copper*%
%IPPOS*%
%AMOC8*
5,1,8,0,0,1.08239X$1,22.5*%
G01*
%ADD10P,1.429621X8X112.500000*%
%ADD11C,1.320800*%
%ADD12P,1.429621X8X22.500000*%
%ADD13C,1.676400*%
%ADD14R,1.508000X1.508000*%
%ADD15C,1.508000*%
%ADD16R,1.308000X1.308000*%
%ADD17C,1.308000*%
%ADD18R,1.358000X1.358000*%
%ADD19C,1.358000*%
%ADD20C,0.152400*%

G36*
X795574Y48265D02*
X795574Y48265D01*
X795598Y48262D01*
X795695Y48284D01*
X795793Y48300D01*
X795815Y48312D01*
X795838Y48317D01*
X795923Y48369D01*
X796011Y48416D01*
X796027Y48433D01*
X796048Y48446D01*
X796112Y48522D01*
X796180Y48594D01*
X796190Y48616D01*
X796206Y48634D01*
X796242Y48727D01*
X796284Y48817D01*
X796286Y48841D01*
X796295Y48863D01*
X796300Y48963D01*
X796311Y49061D01*
X796306Y49085D01*
X796307Y49109D01*
X796280Y49205D01*
X796259Y49302D01*
X796246Y49322D01*
X796240Y49346D01*
X796183Y49428D01*
X796132Y49513D01*
X796114Y49529D01*
X796100Y49548D01*
X796021Y49608D01*
X795945Y49673D01*
X795923Y49682D01*
X795904Y49696D01*
X795748Y49757D01*
X789806Y51349D01*
X783725Y54860D01*
X778760Y59825D01*
X775249Y65906D01*
X773432Y72689D01*
X773432Y79711D01*
X775249Y86494D01*
X778760Y92575D01*
X783725Y97540D01*
X789806Y101051D01*
X796589Y102868D01*
X803611Y102868D01*
X810394Y101051D01*
X816475Y97540D01*
X821440Y92575D01*
X823319Y89320D01*
X823349Y89283D01*
X823372Y89241D01*
X823426Y89189D01*
X823475Y89130D01*
X823515Y89104D01*
X823550Y89071D01*
X823619Y89040D01*
X823683Y88999D01*
X823730Y88988D01*
X823773Y88968D01*
X823848Y88959D01*
X823922Y88942D01*
X823970Y88946D01*
X824017Y88941D01*
X824092Y88957D01*
X824167Y88963D01*
X824211Y88983D01*
X824258Y88993D01*
X824323Y89032D01*
X824392Y89062D01*
X824428Y89095D01*
X824469Y89119D01*
X824518Y89177D01*
X824574Y89228D01*
X824598Y89270D01*
X824629Y89306D01*
X824657Y89376D01*
X824694Y89443D01*
X824703Y89490D01*
X824721Y89534D01*
X824735Y89662D01*
X824739Y89684D01*
X824738Y89691D01*
X824739Y89701D01*
X824739Y646919D01*
X824732Y646967D01*
X824733Y647015D01*
X824712Y647087D01*
X824700Y647162D01*
X824677Y647205D01*
X824663Y647251D01*
X824620Y647313D01*
X824584Y647380D01*
X824550Y647413D01*
X824522Y647452D01*
X824461Y647497D01*
X824406Y647549D01*
X824363Y647569D01*
X824324Y647598D01*
X824252Y647621D01*
X824183Y647653D01*
X824135Y647658D01*
X824090Y647672D01*
X824014Y647671D01*
X823939Y647680D01*
X823892Y647669D01*
X823844Y647669D01*
X823772Y647644D01*
X823698Y647627D01*
X823657Y647603D01*
X823612Y647587D01*
X823552Y647540D01*
X823487Y647501D01*
X823456Y647465D01*
X823418Y647435D01*
X823342Y647331D01*
X823327Y647314D01*
X823325Y647308D01*
X823319Y647300D01*
X821432Y644032D01*
X816468Y639068D01*
X810390Y635559D01*
X803610Y633742D01*
X796590Y633742D01*
X789810Y635559D01*
X783732Y639068D01*
X778768Y644032D01*
X775259Y650110D01*
X773442Y656890D01*
X773442Y663910D01*
X775259Y670690D01*
X778768Y676768D01*
X783732Y681732D01*
X789810Y685241D01*
X795414Y686743D01*
X795436Y686753D01*
X795459Y686757D01*
X795547Y686803D01*
X795638Y686844D01*
X795656Y686860D01*
X795677Y686872D01*
X795745Y686944D01*
X795818Y687011D01*
X795830Y687032D01*
X795846Y687050D01*
X795888Y687140D01*
X795935Y687227D01*
X795940Y687251D01*
X795950Y687273D01*
X795961Y687372D01*
X795978Y687470D01*
X795974Y687494D01*
X795977Y687517D01*
X795956Y687615D01*
X795941Y687713D01*
X795930Y687734D01*
X795925Y687758D01*
X795873Y687843D01*
X795828Y687932D01*
X795811Y687948D01*
X795798Y687969D01*
X795723Y688034D01*
X795652Y688103D01*
X795630Y688113D01*
X795612Y688129D01*
X795519Y688166D01*
X795430Y688209D01*
X795406Y688212D01*
X795383Y688221D01*
X795217Y688239D01*
X660442Y688239D01*
X660372Y688228D01*
X660300Y688226D01*
X660251Y688208D01*
X660200Y688200D01*
X660136Y688166D01*
X660069Y688141D01*
X660028Y688109D01*
X659982Y688084D01*
X659933Y688032D01*
X659877Y687988D01*
X659849Y687944D01*
X659813Y687906D01*
X659783Y687841D01*
X659744Y687781D01*
X659731Y687730D01*
X659709Y687683D01*
X659701Y687612D01*
X659684Y687542D01*
X659688Y687490D01*
X659682Y687439D01*
X659697Y687368D01*
X659703Y687297D01*
X659723Y687249D01*
X659734Y687198D01*
X659771Y687137D01*
X659799Y687071D01*
X659844Y687015D01*
X659861Y686987D01*
X659878Y686972D01*
X659904Y686940D01*
X663312Y683532D01*
X666116Y676763D01*
X666116Y669437D01*
X663312Y662668D01*
X658132Y657488D01*
X653952Y655756D01*
X653913Y655732D01*
X653869Y655716D01*
X653809Y655668D01*
X653743Y655627D01*
X653713Y655591D01*
X653677Y655563D01*
X653635Y655497D01*
X653586Y655437D01*
X653569Y655395D01*
X653544Y655356D01*
X653525Y655280D01*
X653498Y655208D01*
X653496Y655162D01*
X653484Y655117D01*
X653490Y655040D01*
X653487Y654962D01*
X653500Y654918D01*
X653503Y654872D01*
X653534Y654801D01*
X653556Y654726D01*
X653582Y654688D01*
X653600Y654646D01*
X653685Y654539D01*
X653696Y654524D01*
X653700Y654521D01*
X653705Y654515D01*
X655385Y652835D01*
X656765Y649503D01*
X656765Y645897D01*
X655385Y642565D01*
X652835Y640015D01*
X649503Y638635D01*
X645897Y638635D01*
X642565Y640015D01*
X640015Y642565D01*
X638635Y645897D01*
X638635Y649503D01*
X640015Y652835D01*
X641695Y654515D01*
X641722Y654552D01*
X641756Y654583D01*
X641794Y654651D01*
X641839Y654715D01*
X641852Y654758D01*
X641875Y654799D01*
X641888Y654875D01*
X641911Y654950D01*
X641910Y654996D01*
X641918Y655041D01*
X641907Y655118D01*
X641905Y655196D01*
X641889Y655239D01*
X641882Y655284D01*
X641847Y655353D01*
X641820Y655427D01*
X641792Y655462D01*
X641771Y655503D01*
X641715Y655558D01*
X641667Y655619D01*
X641628Y655643D01*
X641595Y655676D01*
X641476Y655742D01*
X641460Y655752D01*
X641455Y655753D01*
X641448Y655756D01*
X637268Y657488D01*
X632088Y662668D01*
X629284Y669437D01*
X629284Y676763D01*
X632088Y683532D01*
X635496Y686940D01*
X635538Y686998D01*
X635587Y687050D01*
X635609Y687097D01*
X635640Y687139D01*
X635661Y687208D01*
X635691Y687273D01*
X635697Y687325D01*
X635712Y687375D01*
X635710Y687446D01*
X635718Y687517D01*
X635707Y687568D01*
X635706Y687620D01*
X635681Y687688D01*
X635666Y687758D01*
X635639Y687803D01*
X635621Y687851D01*
X635576Y687907D01*
X635539Y687969D01*
X635500Y688003D01*
X635467Y688043D01*
X635407Y688082D01*
X635353Y688129D01*
X635304Y688148D01*
X635260Y688176D01*
X635191Y688194D01*
X635124Y688221D01*
X635053Y688229D01*
X635022Y688237D01*
X634999Y688235D01*
X634958Y688239D01*
X508042Y688239D01*
X507972Y688228D01*
X507900Y688226D01*
X507851Y688208D01*
X507800Y688200D01*
X507736Y688166D01*
X507669Y688141D01*
X507628Y688109D01*
X507582Y688084D01*
X507533Y688032D01*
X507477Y687988D01*
X507449Y687944D01*
X507413Y687906D01*
X507383Y687841D01*
X507344Y687781D01*
X507331Y687730D01*
X507309Y687683D01*
X507301Y687612D01*
X507284Y687542D01*
X507288Y687490D01*
X507282Y687439D01*
X507297Y687368D01*
X507303Y687297D01*
X507323Y687249D01*
X507334Y687198D01*
X507371Y687137D01*
X507399Y687071D01*
X507444Y687015D01*
X507461Y686987D01*
X507478Y686972D01*
X507504Y686940D01*
X510912Y683532D01*
X513716Y676763D01*
X513716Y669437D01*
X510912Y662668D01*
X505732Y657488D01*
X501552Y655756D01*
X501513Y655732D01*
X501469Y655716D01*
X501409Y655668D01*
X501343Y655627D01*
X501313Y655591D01*
X501277Y655563D01*
X501235Y655497D01*
X501186Y655437D01*
X501169Y655395D01*
X501144Y655356D01*
X501125Y655280D01*
X501098Y655208D01*
X501096Y655162D01*
X501084Y655117D01*
X501090Y655040D01*
X501087Y654962D01*
X501100Y654918D01*
X501103Y654872D01*
X501134Y654801D01*
X501156Y654726D01*
X501182Y654688D01*
X501200Y654646D01*
X501285Y654539D01*
X501296Y654524D01*
X501300Y654521D01*
X501305Y654515D01*
X502985Y652835D01*
X504365Y649503D01*
X504365Y645897D01*
X502985Y642565D01*
X500435Y640015D01*
X497383Y638751D01*
X497300Y638700D01*
X497214Y638654D01*
X497196Y638636D01*
X497174Y638622D01*
X497112Y638546D01*
X497045Y638476D01*
X497034Y638452D01*
X497017Y638432D01*
X496982Y638341D01*
X496941Y638253D01*
X496938Y638227D01*
X496929Y638203D01*
X496925Y638105D01*
X496914Y638009D01*
X496920Y637983D01*
X496919Y637957D01*
X496946Y637863D01*
X496966Y637768D01*
X496980Y637746D01*
X496987Y637721D01*
X497043Y637641D01*
X497093Y637557D01*
X497113Y637540D01*
X497127Y637519D01*
X497206Y637460D01*
X497280Y637397D01*
X497304Y637387D01*
X497325Y637372D01*
X497417Y637342D01*
X497508Y637305D01*
X497540Y637302D01*
X497559Y637296D01*
X497592Y637296D01*
X497674Y637287D01*
X519437Y637287D01*
X519528Y637301D01*
X519618Y637309D01*
X519648Y637321D01*
X519680Y637326D01*
X519761Y637369D01*
X519845Y637405D01*
X519877Y637431D01*
X519898Y637442D01*
X519920Y637465D01*
X519976Y637510D01*
X530890Y648424D01*
X530943Y648498D01*
X531003Y648568D01*
X531015Y648598D01*
X531034Y648624D01*
X531061Y648711D01*
X531095Y648796D01*
X531099Y648837D01*
X531106Y648859D01*
X531105Y648891D01*
X531113Y648963D01*
X531113Y674047D01*
X532453Y675387D01*
X610547Y675387D01*
X611887Y674047D01*
X611887Y610863D01*
X611901Y610772D01*
X611909Y610682D01*
X611921Y610652D01*
X611926Y610620D01*
X611969Y610539D01*
X612005Y610455D01*
X612031Y610423D01*
X612042Y610402D01*
X612065Y610380D01*
X612110Y610324D01*
X623024Y599410D01*
X623098Y599357D01*
X623168Y599297D01*
X623198Y599285D01*
X623224Y599266D01*
X623311Y599239D01*
X623396Y599205D01*
X623437Y599201D01*
X623459Y599194D01*
X623491Y599195D01*
X623563Y599187D01*
X638327Y599187D01*
X638442Y599206D01*
X638558Y599223D01*
X638564Y599225D01*
X638570Y599226D01*
X638672Y599281D01*
X638777Y599334D01*
X638782Y599339D01*
X638787Y599342D01*
X638867Y599426D01*
X638949Y599510D01*
X638953Y599516D01*
X638956Y599520D01*
X638964Y599537D01*
X639030Y599657D01*
X640015Y602035D01*
X642565Y604585D01*
X645897Y605965D01*
X649503Y605965D01*
X652835Y604585D01*
X655385Y602035D01*
X656765Y598703D01*
X656765Y595097D01*
X655385Y591765D01*
X652835Y589215D01*
X649503Y587835D01*
X645897Y587835D01*
X642565Y589215D01*
X640015Y591765D01*
X639030Y594143D01*
X638968Y594243D01*
X638909Y594343D01*
X638904Y594347D01*
X638901Y594352D01*
X638810Y594427D01*
X638722Y594503D01*
X638716Y594505D01*
X638711Y594509D01*
X638603Y594551D01*
X638494Y594595D01*
X638486Y594596D01*
X638482Y594597D01*
X638463Y594598D01*
X638327Y594613D01*
X621353Y594613D01*
X607313Y608653D01*
X607313Y670052D01*
X607310Y670072D01*
X607312Y670091D01*
X607290Y670193D01*
X607274Y670295D01*
X607264Y670312D01*
X607260Y670332D01*
X607207Y670421D01*
X607158Y670512D01*
X607144Y670526D01*
X607134Y670543D01*
X607055Y670610D01*
X606980Y670682D01*
X606962Y670690D01*
X606947Y670703D01*
X606851Y670742D01*
X606757Y670785D01*
X606737Y670787D01*
X606719Y670795D01*
X606552Y670813D01*
X536448Y670813D01*
X536428Y670810D01*
X536409Y670812D01*
X536307Y670790D01*
X536205Y670774D01*
X536188Y670764D01*
X536168Y670760D01*
X536079Y670707D01*
X535988Y670658D01*
X535974Y670644D01*
X535957Y670634D01*
X535890Y670555D01*
X535818Y670480D01*
X535810Y670462D01*
X535797Y670447D01*
X535758Y670351D01*
X535715Y670257D01*
X535713Y670237D01*
X535705Y670219D01*
X535687Y670052D01*
X535687Y646753D01*
X521647Y632713D01*
X497674Y632713D01*
X497578Y632698D01*
X497481Y632688D01*
X497457Y632678D01*
X497432Y632674D01*
X497346Y632628D01*
X497257Y632588D01*
X497237Y632571D01*
X497214Y632558D01*
X497147Y632488D01*
X497076Y632422D01*
X497063Y632399D01*
X497045Y632380D01*
X497004Y632292D01*
X496957Y632206D01*
X496952Y632181D01*
X496941Y632157D01*
X496931Y632060D01*
X496913Y631964D01*
X496917Y631938D01*
X496914Y631913D01*
X496935Y631817D01*
X496949Y631721D01*
X496961Y631698D01*
X496966Y631672D01*
X497016Y631589D01*
X497061Y631502D01*
X497079Y631483D01*
X497093Y631461D01*
X497167Y631398D01*
X497236Y631330D01*
X497265Y631314D01*
X497280Y631301D01*
X497310Y631289D01*
X497383Y631249D01*
X500435Y629985D01*
X502985Y627435D01*
X504365Y624103D01*
X504365Y620497D01*
X502985Y617165D01*
X500435Y614615D01*
X497103Y613235D01*
X493497Y613235D01*
X490165Y614615D01*
X487615Y617165D01*
X486235Y620497D01*
X486235Y624103D01*
X487615Y627435D01*
X490165Y629985D01*
X493217Y631249D01*
X493300Y631300D01*
X493386Y631346D01*
X493404Y631364D01*
X493426Y631378D01*
X493488Y631454D01*
X493555Y631524D01*
X493566Y631548D01*
X493583Y631568D01*
X493618Y631659D01*
X493659Y631747D01*
X493662Y631773D01*
X493671Y631797D01*
X493675Y631895D01*
X493686Y631991D01*
X493680Y632017D01*
X493681Y632043D01*
X493654Y632137D01*
X493634Y632232D01*
X493620Y632254D01*
X493613Y632279D01*
X493557Y632359D01*
X493507Y632443D01*
X493487Y632460D01*
X493473Y632481D01*
X493394Y632540D01*
X493320Y632603D01*
X493296Y632613D01*
X493275Y632628D01*
X493183Y632658D01*
X493092Y632695D01*
X493060Y632698D01*
X493041Y632704D01*
X493008Y632704D01*
X492926Y632713D01*
X433063Y632713D01*
X432972Y632699D01*
X432882Y632691D01*
X432852Y632679D01*
X432820Y632674D01*
X432739Y632631D01*
X432655Y632595D01*
X432623Y632569D01*
X432602Y632558D01*
X432580Y632535D01*
X432524Y632490D01*
X427388Y627354D01*
X427335Y627280D01*
X427326Y627270D01*
X427296Y627239D01*
X427293Y627231D01*
X427275Y627210D01*
X427263Y627180D01*
X427244Y627154D01*
X427219Y627071D01*
X427193Y627016D01*
X427191Y627003D01*
X427183Y626982D01*
X427179Y626941D01*
X427172Y626919D01*
X427173Y626887D01*
X427165Y626816D01*
X427165Y615128D01*
X426272Y614235D01*
X411928Y614235D01*
X411035Y615128D01*
X411035Y629472D01*
X411928Y630365D01*
X423616Y630365D01*
X423706Y630379D01*
X423797Y630387D01*
X423826Y630399D01*
X423858Y630404D01*
X423939Y630447D01*
X424023Y630483D01*
X424055Y630509D01*
X424076Y630520D01*
X424098Y630543D01*
X424154Y630588D01*
X429290Y635724D01*
X430853Y637287D01*
X492926Y637287D01*
X493022Y637302D01*
X493119Y637312D01*
X493143Y637322D01*
X493168Y637326D01*
X493254Y637372D01*
X493343Y637412D01*
X493363Y637429D01*
X493386Y637442D01*
X493453Y637512D01*
X493524Y637578D01*
X493537Y637601D01*
X493555Y637620D01*
X493596Y637708D01*
X493643Y637794D01*
X493648Y637819D01*
X493659Y637843D01*
X493669Y637940D01*
X493687Y638036D01*
X493683Y638062D01*
X493686Y638087D01*
X493665Y638183D01*
X493651Y638279D01*
X493639Y638302D01*
X493634Y638328D01*
X493584Y638411D01*
X493539Y638498D01*
X493521Y638517D01*
X493507Y638539D01*
X493433Y638602D01*
X493364Y638670D01*
X493335Y638686D01*
X493320Y638699D01*
X493290Y638711D01*
X493217Y638751D01*
X490165Y640015D01*
X487615Y642565D01*
X486235Y645897D01*
X486235Y649503D01*
X486716Y650665D01*
X486743Y650778D01*
X486772Y650892D01*
X486771Y650898D01*
X486773Y650904D01*
X486762Y651021D01*
X486753Y651137D01*
X486750Y651143D01*
X486749Y651149D01*
X486702Y651255D01*
X486656Y651363D01*
X486652Y651369D01*
X486649Y651374D01*
X486637Y651388D01*
X486551Y651494D01*
X480155Y657890D01*
X480081Y657943D01*
X480012Y658003D01*
X479982Y658015D01*
X479956Y658034D01*
X479869Y658061D01*
X479784Y658095D01*
X479743Y658099D01*
X479721Y658106D01*
X479688Y658105D01*
X479617Y658113D01*
X371348Y658113D01*
X371328Y658110D01*
X371309Y658112D01*
X371207Y658090D01*
X371105Y658074D01*
X371088Y658064D01*
X371068Y658060D01*
X370979Y658007D01*
X370888Y657958D01*
X370874Y657944D01*
X370857Y657934D01*
X370790Y657855D01*
X370718Y657780D01*
X370710Y657762D01*
X370697Y657747D01*
X370658Y657651D01*
X370615Y657557D01*
X370613Y657537D01*
X370605Y657519D01*
X370587Y657352D01*
X370587Y634053D01*
X345410Y608876D01*
X345357Y608802D01*
X345297Y608732D01*
X345285Y608702D01*
X345266Y608676D01*
X345239Y608589D01*
X345205Y608504D01*
X345201Y608463D01*
X345194Y608441D01*
X345195Y608409D01*
X345187Y608337D01*
X345187Y595953D01*
X338488Y589254D01*
X338441Y589188D01*
X338429Y589176D01*
X338426Y589170D01*
X338375Y589110D01*
X338363Y589080D01*
X338344Y589054D01*
X338317Y588967D01*
X338283Y588882D01*
X338279Y588841D01*
X338272Y588819D01*
X338273Y588787D01*
X338265Y588715D01*
X338265Y577028D01*
X337372Y576135D01*
X323028Y576135D01*
X322135Y577028D01*
X322135Y591372D01*
X323028Y592265D01*
X334715Y592265D01*
X334806Y592279D01*
X334896Y592287D01*
X334926Y592299D01*
X334958Y592304D01*
X335039Y592347D01*
X335123Y592383D01*
X335155Y592409D01*
X335176Y592420D01*
X335198Y592443D01*
X335254Y592488D01*
X340390Y597624D01*
X340443Y597698D01*
X340503Y597768D01*
X340515Y597798D01*
X340534Y597824D01*
X340561Y597911D01*
X340595Y597996D01*
X340599Y598037D01*
X340606Y598059D01*
X340605Y598091D01*
X340613Y598163D01*
X340613Y610547D01*
X365790Y635724D01*
X365843Y635798D01*
X365903Y635868D01*
X365915Y635898D01*
X365934Y635924D01*
X365961Y636011D01*
X365995Y636096D01*
X365999Y636137D01*
X366006Y636159D01*
X366005Y636191D01*
X366013Y636263D01*
X366013Y661347D01*
X367353Y662687D01*
X478541Y662687D01*
X478586Y662694D01*
X478632Y662692D01*
X478707Y662714D01*
X478784Y662726D01*
X478824Y662748D01*
X478868Y662761D01*
X478932Y662805D01*
X479001Y662842D01*
X479033Y662875D01*
X479070Y662901D01*
X479117Y662964D01*
X479170Y663020D01*
X479190Y663062D01*
X479217Y663098D01*
X479241Y663172D01*
X479274Y663243D01*
X479279Y663289D01*
X479293Y663332D01*
X479293Y663410D01*
X479301Y663487D01*
X479291Y663532D01*
X479291Y663578D01*
X479253Y663710D01*
X479249Y663728D01*
X479246Y663732D01*
X479244Y663739D01*
X476884Y669437D01*
X476884Y676763D01*
X479688Y683532D01*
X483096Y686940D01*
X483138Y686998D01*
X483187Y687050D01*
X483209Y687097D01*
X483240Y687139D01*
X483261Y687208D01*
X483291Y687273D01*
X483297Y687325D01*
X483312Y687375D01*
X483310Y687446D01*
X483318Y687517D01*
X483307Y687568D01*
X483306Y687620D01*
X483281Y687688D01*
X483266Y687758D01*
X483239Y687803D01*
X483221Y687851D01*
X483176Y687907D01*
X483139Y687969D01*
X483100Y688003D01*
X483067Y688043D01*
X483007Y688082D01*
X482953Y688129D01*
X482904Y688148D01*
X482860Y688176D01*
X482791Y688194D01*
X482724Y688221D01*
X482653Y688229D01*
X482622Y688237D01*
X482599Y688235D01*
X482558Y688239D01*
X322423Y688239D01*
X322399Y688235D01*
X322375Y688238D01*
X322278Y688216D01*
X322180Y688200D01*
X322159Y688188D01*
X322135Y688183D01*
X322050Y688131D01*
X321962Y688084D01*
X321946Y688067D01*
X321925Y688054D01*
X321862Y687978D01*
X321793Y687906D01*
X321783Y687884D01*
X321768Y687866D01*
X321731Y687773D01*
X321689Y687683D01*
X321687Y687659D01*
X321678Y687637D01*
X321673Y687537D01*
X321662Y687439D01*
X321668Y687415D01*
X321666Y687391D01*
X321694Y687295D01*
X321715Y687198D01*
X321727Y687178D01*
X321734Y687154D01*
X321790Y687072D01*
X321841Y686987D01*
X321859Y686971D01*
X321873Y686952D01*
X321952Y686892D01*
X322028Y686827D01*
X322050Y686818D01*
X322069Y686804D01*
X322226Y686743D01*
X327794Y685251D01*
X333875Y681740D01*
X338840Y676775D01*
X342351Y670694D01*
X344168Y663911D01*
X344168Y656889D01*
X342351Y650106D01*
X338840Y644025D01*
X333875Y639060D01*
X327794Y635549D01*
X321011Y633732D01*
X313989Y633732D01*
X307206Y635549D01*
X301125Y639060D01*
X296160Y644025D01*
X292649Y650106D01*
X291057Y656048D01*
X291047Y656070D01*
X291043Y656093D01*
X290997Y656181D01*
X290956Y656272D01*
X290940Y656289D01*
X290928Y656311D01*
X290856Y656379D01*
X290789Y656452D01*
X290768Y656463D01*
X290750Y656480D01*
X290660Y656522D01*
X290573Y656569D01*
X290549Y656574D01*
X290527Y656584D01*
X290428Y656595D01*
X290330Y656612D01*
X290306Y656608D01*
X290283Y656611D01*
X290185Y656590D01*
X290087Y656575D01*
X290066Y656564D01*
X290042Y656559D01*
X289957Y656507D01*
X289868Y656462D01*
X289852Y656445D01*
X289831Y656432D01*
X289766Y656357D01*
X289697Y656285D01*
X289687Y656264D01*
X289671Y656245D01*
X289634Y656153D01*
X289591Y656064D01*
X289588Y656040D01*
X289579Y656017D01*
X289561Y655851D01*
X289561Y80749D01*
X289565Y80726D01*
X289562Y80702D01*
X289584Y80605D01*
X289600Y80507D01*
X289612Y80485D01*
X289617Y80462D01*
X289669Y80377D01*
X289716Y80289D01*
X289733Y80273D01*
X289746Y80252D01*
X289822Y80188D01*
X289894Y80120D01*
X289916Y80110D01*
X289934Y80094D01*
X290027Y80058D01*
X290117Y80016D01*
X290141Y80014D01*
X290163Y80005D01*
X290263Y80000D01*
X290361Y79989D01*
X290385Y79994D01*
X290409Y79993D01*
X290505Y80020D01*
X290602Y80041D01*
X290622Y80054D01*
X290646Y80060D01*
X290728Y80117D01*
X290813Y80168D01*
X290829Y80186D01*
X290848Y80200D01*
X290908Y80279D01*
X290973Y80355D01*
X290982Y80377D01*
X290996Y80396D01*
X291057Y80552D01*
X292649Y86494D01*
X296160Y92575D01*
X301125Y97540D01*
X307206Y101051D01*
X313989Y102868D01*
X321011Y102868D01*
X327794Y101051D01*
X333875Y97540D01*
X338840Y92575D01*
X342351Y86494D01*
X344168Y79711D01*
X344168Y72689D01*
X342351Y65906D01*
X338840Y59825D01*
X333875Y54860D01*
X327794Y51349D01*
X321852Y49757D01*
X321830Y49747D01*
X321807Y49743D01*
X321719Y49697D01*
X321628Y49656D01*
X321611Y49640D01*
X321589Y49628D01*
X321521Y49556D01*
X321448Y49489D01*
X321437Y49468D01*
X321420Y49450D01*
X321378Y49360D01*
X321331Y49273D01*
X321326Y49249D01*
X321316Y49227D01*
X321305Y49128D01*
X321288Y49030D01*
X321292Y49006D01*
X321289Y48983D01*
X321310Y48885D01*
X321325Y48787D01*
X321336Y48766D01*
X321341Y48742D01*
X321393Y48657D01*
X321438Y48568D01*
X321455Y48552D01*
X321468Y48531D01*
X321543Y48466D01*
X321615Y48397D01*
X321636Y48387D01*
X321655Y48371D01*
X321747Y48334D01*
X321836Y48291D01*
X321860Y48288D01*
X321883Y48279D01*
X322049Y48261D01*
X795551Y48261D01*
X795574Y48265D01*
G37*
%LPC*%
G36*
X328596Y182435D02*
X328596Y182435D01*
X325632Y183663D01*
X323363Y185932D01*
X322135Y188896D01*
X322135Y192104D01*
X323363Y195068D01*
X325632Y197337D01*
X328596Y198565D01*
X331804Y198565D01*
X333616Y197814D01*
X333730Y197788D01*
X333843Y197759D01*
X333849Y197760D01*
X333855Y197758D01*
X333972Y197769D01*
X334088Y197778D01*
X334094Y197781D01*
X334100Y197781D01*
X334208Y197829D01*
X334314Y197875D01*
X334320Y197879D01*
X334325Y197881D01*
X334339Y197894D01*
X334445Y197979D01*
X353090Y216624D01*
X354653Y218187D01*
X367037Y218187D01*
X367128Y218201D01*
X367218Y218209D01*
X367248Y218221D01*
X367280Y218226D01*
X367361Y218269D01*
X367445Y218305D01*
X367477Y218331D01*
X367498Y218342D01*
X367520Y218365D01*
X367576Y218410D01*
X378490Y229324D01*
X378543Y229398D01*
X378603Y229468D01*
X378615Y229498D01*
X378634Y229524D01*
X378661Y229611D01*
X378695Y229696D01*
X378699Y229737D01*
X378706Y229759D01*
X378705Y229791D01*
X378713Y229863D01*
X378713Y305747D01*
X441990Y369024D01*
X442043Y369098D01*
X442103Y369168D01*
X442115Y369198D01*
X442134Y369224D01*
X442161Y369311D01*
X442195Y369396D01*
X442199Y369437D01*
X442206Y369459D01*
X442205Y369491D01*
X442213Y369563D01*
X442213Y420047D01*
X456253Y434087D01*
X492926Y434087D01*
X493022Y434102D01*
X493119Y434112D01*
X493143Y434122D01*
X493168Y434126D01*
X493254Y434172D01*
X493343Y434212D01*
X493363Y434229D01*
X493386Y434242D01*
X493453Y434312D01*
X493524Y434378D01*
X493537Y434401D01*
X493555Y434420D01*
X493596Y434508D01*
X493643Y434594D01*
X493648Y434619D01*
X493659Y434643D01*
X493669Y434740D01*
X493687Y434836D01*
X493683Y434862D01*
X493686Y434887D01*
X493665Y434983D01*
X493651Y435079D01*
X493639Y435102D01*
X493634Y435128D01*
X493584Y435211D01*
X493539Y435298D01*
X493521Y435317D01*
X493507Y435339D01*
X493433Y435402D01*
X493364Y435470D01*
X493335Y435486D01*
X493320Y435499D01*
X493290Y435511D01*
X493217Y435551D01*
X490165Y436815D01*
X487615Y439365D01*
X486630Y441743D01*
X486568Y441843D01*
X486509Y441943D01*
X486504Y441947D01*
X486501Y441952D01*
X486410Y442027D01*
X486322Y442103D01*
X486316Y442105D01*
X486311Y442109D01*
X486203Y442151D01*
X486094Y442195D01*
X486086Y442196D01*
X486082Y442197D01*
X486063Y442198D01*
X485927Y442213D01*
X445763Y442213D01*
X445672Y442199D01*
X445582Y442191D01*
X445552Y442179D01*
X445520Y442174D01*
X445439Y442131D01*
X445355Y442095D01*
X445323Y442069D01*
X445302Y442058D01*
X445280Y442035D01*
X445224Y441990D01*
X434310Y431076D01*
X434257Y431002D01*
X434197Y430932D01*
X434185Y430902D01*
X434166Y430876D01*
X434139Y430789D01*
X434105Y430704D01*
X434101Y430663D01*
X434094Y430641D01*
X434095Y430609D01*
X434087Y430537D01*
X434087Y380053D01*
X432524Y378490D01*
X351188Y297154D01*
X351135Y297080D01*
X351075Y297010D01*
X351063Y296980D01*
X351044Y296954D01*
X351017Y296867D01*
X350983Y296782D01*
X350979Y296741D01*
X350972Y296719D01*
X350973Y296687D01*
X350965Y296616D01*
X350965Y284928D01*
X350072Y284035D01*
X335728Y284035D01*
X334835Y284928D01*
X334835Y299272D01*
X335728Y300165D01*
X347416Y300165D01*
X347506Y300179D01*
X347597Y300187D01*
X347626Y300199D01*
X347658Y300204D01*
X347739Y300247D01*
X347823Y300283D01*
X347855Y300309D01*
X347876Y300320D01*
X347898Y300343D01*
X347954Y300388D01*
X429290Y381724D01*
X429343Y381798D01*
X429403Y381868D01*
X429415Y381898D01*
X429434Y381924D01*
X429461Y382011D01*
X429495Y382096D01*
X429499Y382137D01*
X429506Y382159D01*
X429505Y382191D01*
X429513Y382263D01*
X429513Y432747D01*
X443553Y446787D01*
X485927Y446787D01*
X486042Y446806D01*
X486158Y446823D01*
X486164Y446825D01*
X486170Y446826D01*
X486272Y446881D01*
X486377Y446934D01*
X486382Y446939D01*
X486387Y446942D01*
X486467Y447026D01*
X486549Y447110D01*
X486553Y447116D01*
X486556Y447120D01*
X486564Y447137D01*
X486630Y447257D01*
X487615Y449635D01*
X490165Y452185D01*
X493497Y453565D01*
X497103Y453565D01*
X500435Y452185D01*
X502985Y449635D01*
X504365Y446303D01*
X504365Y442697D01*
X502985Y439365D01*
X500435Y436815D01*
X497383Y435551D01*
X497300Y435500D01*
X497214Y435454D01*
X497196Y435436D01*
X497174Y435422D01*
X497112Y435346D01*
X497045Y435276D01*
X497034Y435252D01*
X497017Y435232D01*
X496982Y435141D01*
X496941Y435053D01*
X496938Y435027D01*
X496929Y435003D01*
X496925Y434905D01*
X496914Y434809D01*
X496920Y434783D01*
X496919Y434757D01*
X496946Y434663D01*
X496966Y434568D01*
X496980Y434546D01*
X496987Y434521D01*
X497043Y434441D01*
X497093Y434357D01*
X497113Y434340D01*
X497127Y434319D01*
X497206Y434260D01*
X497280Y434197D01*
X497304Y434187D01*
X497325Y434172D01*
X497417Y434142D01*
X497508Y434105D01*
X497540Y434102D01*
X497559Y434096D01*
X497592Y434096D01*
X497674Y434087D01*
X506737Y434087D01*
X506828Y434101D01*
X506918Y434109D01*
X506948Y434121D01*
X506980Y434126D01*
X507061Y434169D01*
X507145Y434205D01*
X507177Y434231D01*
X507198Y434242D01*
X507220Y434265D01*
X507276Y434310D01*
X518190Y445224D01*
X518243Y445298D01*
X518303Y445368D01*
X518315Y445398D01*
X518334Y445424D01*
X518361Y445511D01*
X518395Y445596D01*
X518399Y445637D01*
X518406Y445659D01*
X518405Y445691D01*
X518413Y445763D01*
X518413Y557537D01*
X518410Y557557D01*
X518412Y557576D01*
X518397Y557646D01*
X518391Y557718D01*
X518379Y557748D01*
X518374Y557780D01*
X518364Y557798D01*
X518360Y557817D01*
X518324Y557877D01*
X518295Y557945D01*
X518269Y557977D01*
X518258Y557998D01*
X518243Y558012D01*
X518234Y558028D01*
X518217Y558042D01*
X518190Y558076D01*
X507276Y568990D01*
X507202Y569043D01*
X507132Y569103D01*
X507102Y569115D01*
X507076Y569134D01*
X506989Y569161D01*
X506904Y569195D01*
X506863Y569199D01*
X506841Y569206D01*
X506809Y569205D01*
X506737Y569213D01*
X504673Y569213D01*
X504558Y569194D01*
X504442Y569177D01*
X504436Y569175D01*
X504430Y569174D01*
X504328Y569119D01*
X504223Y569066D01*
X504218Y569061D01*
X504213Y569058D01*
X504133Y568974D01*
X504051Y568890D01*
X504047Y568884D01*
X504044Y568880D01*
X504036Y568863D01*
X503970Y568743D01*
X502985Y566365D01*
X500435Y563815D01*
X497103Y562435D01*
X493497Y562435D01*
X490165Y563815D01*
X487615Y566365D01*
X486235Y569697D01*
X486235Y573303D01*
X487615Y576635D01*
X490165Y579185D01*
X493497Y580565D01*
X497103Y580565D01*
X500435Y579185D01*
X502985Y576635D01*
X503970Y574257D01*
X504032Y574157D01*
X504091Y574057D01*
X504096Y574053D01*
X504099Y574048D01*
X504190Y573973D01*
X504278Y573897D01*
X504284Y573895D01*
X504289Y573891D01*
X504397Y573849D01*
X504506Y573805D01*
X504514Y573804D01*
X504518Y573803D01*
X504537Y573802D01*
X504673Y573787D01*
X508947Y573787D01*
X522987Y559747D01*
X522987Y443553D01*
X508947Y429513D01*
X497674Y429513D01*
X497578Y429498D01*
X497481Y429488D01*
X497457Y429478D01*
X497432Y429474D01*
X497346Y429428D01*
X497257Y429388D01*
X497237Y429371D01*
X497214Y429358D01*
X497147Y429288D01*
X497076Y429222D01*
X497063Y429199D01*
X497045Y429180D01*
X497004Y429092D01*
X496957Y429006D01*
X496952Y428981D01*
X496941Y428957D01*
X496931Y428860D01*
X496913Y428764D01*
X496917Y428738D01*
X496914Y428713D01*
X496935Y428617D01*
X496949Y428521D01*
X496961Y428498D01*
X496966Y428472D01*
X497016Y428389D01*
X497061Y428302D01*
X497079Y428283D01*
X497093Y428261D01*
X497167Y428198D01*
X497236Y428130D01*
X497265Y428114D01*
X497280Y428101D01*
X497310Y428089D01*
X497383Y428049D01*
X500435Y426785D01*
X502985Y424235D01*
X504365Y420903D01*
X504365Y417297D01*
X502985Y413965D01*
X500435Y411415D01*
X497383Y410151D01*
X497300Y410100D01*
X497214Y410054D01*
X497196Y410036D01*
X497174Y410022D01*
X497112Y409946D01*
X497045Y409876D01*
X497034Y409852D01*
X497017Y409832D01*
X496982Y409741D01*
X496941Y409653D01*
X496938Y409627D01*
X496929Y409603D01*
X496925Y409505D01*
X496914Y409409D01*
X496920Y409383D01*
X496919Y409357D01*
X496946Y409263D01*
X496966Y409168D01*
X496980Y409146D01*
X496987Y409121D01*
X497043Y409041D01*
X497093Y408957D01*
X497113Y408940D01*
X497127Y408919D01*
X497206Y408860D01*
X497280Y408797D01*
X497304Y408787D01*
X497325Y408772D01*
X497417Y408742D01*
X497508Y408705D01*
X497540Y408702D01*
X497559Y408696D01*
X497592Y408696D01*
X497674Y408687D01*
X519437Y408687D01*
X519528Y408701D01*
X519618Y408709D01*
X519648Y408721D01*
X519680Y408726D01*
X519761Y408769D01*
X519845Y408805D01*
X519877Y408831D01*
X519898Y408842D01*
X519920Y408865D01*
X519976Y408910D01*
X530890Y419824D01*
X530943Y419898D01*
X531003Y419968D01*
X531015Y419998D01*
X531034Y420024D01*
X531061Y420111D01*
X531095Y420196D01*
X531099Y420237D01*
X531106Y420259D01*
X531105Y420291D01*
X531113Y420363D01*
X531113Y547047D01*
X550262Y566196D01*
X550315Y566270D01*
X550375Y566340D01*
X550387Y566370D01*
X550406Y566396D01*
X550433Y566483D01*
X550467Y566568D01*
X550471Y566609D01*
X550478Y566631D01*
X550477Y566663D01*
X550485Y566735D01*
X550485Y578922D01*
X551378Y579815D01*
X566222Y579815D01*
X567115Y578922D01*
X567115Y564078D01*
X566222Y563185D01*
X554035Y563185D01*
X553944Y563171D01*
X553854Y563163D01*
X553824Y563151D01*
X553792Y563146D01*
X553711Y563103D01*
X553627Y563067D01*
X553595Y563041D01*
X553574Y563030D01*
X553552Y563007D01*
X553496Y562962D01*
X535910Y545376D01*
X535857Y545302D01*
X535797Y545232D01*
X535785Y545202D01*
X535766Y545176D01*
X535739Y545089D01*
X535705Y545004D01*
X535701Y544963D01*
X535694Y544941D01*
X535695Y544909D01*
X535687Y544837D01*
X535687Y418153D01*
X521647Y404113D01*
X497674Y404113D01*
X497578Y404098D01*
X497481Y404088D01*
X497457Y404078D01*
X497432Y404074D01*
X497346Y404028D01*
X497257Y403988D01*
X497237Y403971D01*
X497214Y403958D01*
X497147Y403888D01*
X497076Y403822D01*
X497063Y403799D01*
X497045Y403780D01*
X497004Y403692D01*
X496957Y403606D01*
X496952Y403581D01*
X496941Y403557D01*
X496931Y403460D01*
X496913Y403364D01*
X496917Y403338D01*
X496914Y403313D01*
X496935Y403217D01*
X496949Y403121D01*
X496961Y403098D01*
X496966Y403072D01*
X497016Y402989D01*
X497061Y402902D01*
X497079Y402883D01*
X497093Y402861D01*
X497167Y402798D01*
X497236Y402730D01*
X497265Y402714D01*
X497280Y402701D01*
X497310Y402689D01*
X497383Y402649D01*
X500435Y401385D01*
X502985Y398835D01*
X504365Y395503D01*
X504365Y391897D01*
X502985Y388565D01*
X500435Y386015D01*
X497103Y384635D01*
X493497Y384635D01*
X490165Y386015D01*
X487615Y388565D01*
X486235Y391897D01*
X486235Y395503D01*
X487615Y398835D01*
X490165Y401385D01*
X493217Y402649D01*
X493300Y402700D01*
X493386Y402746D01*
X493404Y402764D01*
X493426Y402778D01*
X493488Y402854D01*
X493555Y402924D01*
X493566Y402948D01*
X493583Y402968D01*
X493618Y403059D01*
X493659Y403147D01*
X493662Y403173D01*
X493671Y403197D01*
X493675Y403295D01*
X493686Y403391D01*
X493680Y403417D01*
X493681Y403443D01*
X493654Y403537D01*
X493634Y403632D01*
X493620Y403654D01*
X493613Y403679D01*
X493557Y403759D01*
X493507Y403843D01*
X493487Y403860D01*
X493473Y403881D01*
X493394Y403940D01*
X493320Y404003D01*
X493296Y404013D01*
X493275Y404028D01*
X493183Y404058D01*
X493092Y404095D01*
X493060Y404098D01*
X493041Y404104D01*
X493008Y404104D01*
X492926Y404113D01*
X471163Y404113D01*
X471072Y404099D01*
X470982Y404091D01*
X470952Y404079D01*
X470920Y404074D01*
X470839Y404031D01*
X470755Y403995D01*
X470723Y403969D01*
X470702Y403958D01*
X470680Y403935D01*
X470624Y403890D01*
X459710Y392976D01*
X459657Y392902D01*
X459597Y392832D01*
X459585Y392802D01*
X459566Y392776D01*
X459539Y392689D01*
X459505Y392604D01*
X459501Y392563D01*
X459494Y392541D01*
X459495Y392509D01*
X459487Y392437D01*
X459487Y354653D01*
X408910Y304076D01*
X408857Y304002D01*
X408797Y303932D01*
X408785Y303902D01*
X408766Y303876D01*
X408739Y303789D01*
X408705Y303704D01*
X408701Y303663D01*
X408694Y303641D01*
X408695Y303609D01*
X408687Y303537D01*
X408687Y237490D01*
X408690Y237470D01*
X408688Y237451D01*
X408710Y237349D01*
X408726Y237247D01*
X408736Y237230D01*
X408740Y237210D01*
X408793Y237121D01*
X408842Y237030D01*
X408856Y237016D01*
X408866Y236999D01*
X408945Y236932D01*
X409020Y236860D01*
X409038Y236852D01*
X409053Y236839D01*
X409149Y236800D01*
X409243Y236757D01*
X409263Y236755D01*
X409281Y236747D01*
X409448Y236729D01*
X409767Y236729D01*
X414529Y231967D01*
X414529Y225233D01*
X409767Y220471D01*
X403033Y220471D01*
X398271Y225233D01*
X398271Y231967D01*
X403033Y236729D01*
X403352Y236729D01*
X403372Y236732D01*
X403391Y236730D01*
X403493Y236752D01*
X403595Y236768D01*
X403612Y236778D01*
X403632Y236782D01*
X403721Y236835D01*
X403812Y236884D01*
X403826Y236898D01*
X403843Y236908D01*
X403910Y236987D01*
X403982Y237062D01*
X403990Y237080D01*
X404003Y237095D01*
X404042Y237191D01*
X404085Y237285D01*
X404087Y237305D01*
X404095Y237323D01*
X404113Y237490D01*
X404113Y305747D01*
X454690Y356324D01*
X454743Y356398D01*
X454803Y356468D01*
X454815Y356498D01*
X454834Y356524D01*
X454861Y356611D01*
X454895Y356696D01*
X454899Y356737D01*
X454906Y356759D01*
X454905Y356791D01*
X454913Y356863D01*
X454913Y394647D01*
X468953Y408687D01*
X492926Y408687D01*
X493022Y408702D01*
X493119Y408712D01*
X493143Y408722D01*
X493168Y408726D01*
X493254Y408772D01*
X493343Y408812D01*
X493363Y408829D01*
X493386Y408842D01*
X493453Y408912D01*
X493524Y408978D01*
X493537Y409001D01*
X493555Y409020D01*
X493596Y409108D01*
X493643Y409194D01*
X493648Y409219D01*
X493659Y409243D01*
X493669Y409340D01*
X493687Y409436D01*
X493683Y409462D01*
X493686Y409487D01*
X493665Y409583D01*
X493651Y409679D01*
X493639Y409702D01*
X493634Y409728D01*
X493584Y409811D01*
X493539Y409898D01*
X493521Y409917D01*
X493507Y409939D01*
X493433Y410002D01*
X493364Y410070D01*
X493335Y410086D01*
X493320Y410099D01*
X493290Y410111D01*
X493217Y410151D01*
X490165Y411415D01*
X487615Y413965D01*
X486235Y417297D01*
X486235Y420903D01*
X487615Y424235D01*
X490165Y426785D01*
X493217Y428049D01*
X493300Y428100D01*
X493386Y428146D01*
X493404Y428164D01*
X493426Y428178D01*
X493488Y428254D01*
X493555Y428324D01*
X493566Y428348D01*
X493583Y428368D01*
X493618Y428459D01*
X493659Y428547D01*
X493662Y428573D01*
X493671Y428597D01*
X493675Y428695D01*
X493686Y428791D01*
X493680Y428817D01*
X493681Y428843D01*
X493654Y428937D01*
X493634Y429032D01*
X493620Y429054D01*
X493613Y429079D01*
X493557Y429159D01*
X493507Y429243D01*
X493487Y429260D01*
X493473Y429281D01*
X493394Y429340D01*
X493320Y429403D01*
X493296Y429413D01*
X493275Y429428D01*
X493183Y429458D01*
X493092Y429495D01*
X493060Y429498D01*
X493041Y429504D01*
X493008Y429504D01*
X492926Y429513D01*
X458463Y429513D01*
X458372Y429499D01*
X458282Y429491D01*
X458252Y429479D01*
X458220Y429474D01*
X458139Y429431D01*
X458055Y429395D01*
X458023Y429369D01*
X458002Y429358D01*
X457980Y429335D01*
X457924Y429290D01*
X447010Y418376D01*
X446957Y418302D01*
X446897Y418232D01*
X446885Y418202D01*
X446866Y418176D01*
X446839Y418089D01*
X446805Y418004D01*
X446801Y417963D01*
X446794Y417941D01*
X446795Y417909D01*
X446787Y417837D01*
X446787Y367353D01*
X383510Y304076D01*
X383457Y304002D01*
X383397Y303932D01*
X383385Y303902D01*
X383366Y303876D01*
X383339Y303789D01*
X383305Y303704D01*
X383301Y303663D01*
X383294Y303641D01*
X383295Y303609D01*
X383287Y303537D01*
X383287Y227653D01*
X369247Y213613D01*
X356863Y213613D01*
X356772Y213599D01*
X356682Y213591D01*
X356652Y213579D01*
X356620Y213574D01*
X356539Y213531D01*
X356455Y213495D01*
X356423Y213469D01*
X356402Y213458D01*
X356380Y213435D01*
X356324Y213390D01*
X337679Y194745D01*
X337611Y194651D01*
X337541Y194557D01*
X337539Y194551D01*
X337536Y194546D01*
X337502Y194435D01*
X337465Y194323D01*
X337465Y194317D01*
X337463Y194311D01*
X337466Y194194D01*
X337468Y194077D01*
X337470Y194070D01*
X337470Y194065D01*
X337476Y194047D01*
X337514Y193916D01*
X338265Y192104D01*
X338265Y188896D01*
X337037Y185932D01*
X334768Y183663D01*
X331804Y182435D01*
X328596Y182435D01*
G37*
%LPD*%
%LPC*%
G36*
X644037Y248284D02*
X644037Y248284D01*
X637268Y251088D01*
X632088Y256268D01*
X629284Y263037D01*
X629284Y270363D01*
X632088Y277132D01*
X637268Y282312D01*
X638325Y282750D01*
X638364Y282774D01*
X638407Y282790D01*
X638468Y282839D01*
X638534Y282880D01*
X638564Y282915D01*
X638599Y282944D01*
X638642Y283009D01*
X638691Y283069D01*
X638708Y283112D01*
X638732Y283151D01*
X638751Y283226D01*
X638779Y283299D01*
X638781Y283344D01*
X638792Y283389D01*
X638786Y283467D01*
X638790Y283544D01*
X638777Y283588D01*
X638773Y283634D01*
X638743Y283706D01*
X638721Y283781D01*
X638695Y283818D01*
X638677Y283861D01*
X638635Y283913D01*
X638635Y289052D01*
X638632Y289072D01*
X638634Y289091D01*
X638612Y289193D01*
X638596Y289295D01*
X638586Y289312D01*
X638582Y289332D01*
X638529Y289421D01*
X638480Y289512D01*
X638466Y289526D01*
X638456Y289543D01*
X638377Y289610D01*
X638302Y289682D01*
X638284Y289690D01*
X638269Y289703D01*
X638173Y289742D01*
X638079Y289785D01*
X638059Y289787D01*
X638041Y289795D01*
X637874Y289813D01*
X634053Y289813D01*
X608876Y314990D01*
X608802Y315043D01*
X608732Y315103D01*
X608702Y315115D01*
X608676Y315134D01*
X608589Y315161D01*
X608504Y315195D01*
X608463Y315199D01*
X608441Y315206D01*
X608409Y315205D01*
X608338Y315213D01*
X557853Y315213D01*
X531113Y341953D01*
X531113Y381947D01*
X545153Y395987D01*
X595637Y395987D01*
X595728Y396001D01*
X595818Y396009D01*
X595848Y396021D01*
X595880Y396026D01*
X595961Y396069D01*
X596045Y396105D01*
X596077Y396131D01*
X596098Y396142D01*
X596120Y396165D01*
X596176Y396210D01*
X607090Y407124D01*
X607143Y407198D01*
X607203Y407268D01*
X607215Y407298D01*
X607234Y407324D01*
X607261Y407411D01*
X607295Y407496D01*
X607299Y407537D01*
X607306Y407559D01*
X607305Y407591D01*
X607313Y407663D01*
X607313Y468637D01*
X607299Y468728D01*
X607291Y468818D01*
X607279Y468848D01*
X607274Y468880D01*
X607231Y468961D01*
X607195Y469045D01*
X607169Y469077D01*
X607158Y469098D01*
X607135Y469120D01*
X607090Y469176D01*
X596176Y480090D01*
X596102Y480143D01*
X596032Y480203D01*
X596002Y480215D01*
X595976Y480234D01*
X595889Y480261D01*
X595804Y480295D01*
X595763Y480299D01*
X595741Y480306D01*
X595709Y480305D01*
X595637Y480313D01*
X570553Y480313D01*
X556513Y494353D01*
X556513Y499439D01*
X556494Y499553D01*
X556477Y499670D01*
X556475Y499675D01*
X556474Y499682D01*
X556419Y499784D01*
X556366Y499889D01*
X556361Y499893D01*
X556358Y499899D01*
X556274Y499979D01*
X556190Y500061D01*
X556184Y500065D01*
X556180Y500068D01*
X556163Y500076D01*
X556043Y500142D01*
X554090Y500951D01*
X551751Y503290D01*
X550485Y506346D01*
X550485Y509654D01*
X551751Y512710D01*
X554090Y515049D01*
X557146Y516315D01*
X560454Y516315D01*
X563510Y515049D01*
X565849Y512710D01*
X567115Y509654D01*
X567115Y506346D01*
X565849Y503290D01*
X563510Y500951D01*
X561557Y500142D01*
X561457Y500080D01*
X561357Y500021D01*
X561353Y500016D01*
X561348Y500012D01*
X561272Y499922D01*
X561197Y499834D01*
X561195Y499828D01*
X561191Y499823D01*
X561149Y499715D01*
X561105Y499605D01*
X561104Y499598D01*
X561103Y499593D01*
X561102Y499575D01*
X561087Y499439D01*
X561087Y496563D01*
X561101Y496472D01*
X561109Y496382D01*
X561121Y496352D01*
X561126Y496320D01*
X561169Y496239D01*
X561205Y496155D01*
X561231Y496123D01*
X561242Y496102D01*
X561265Y496080D01*
X561310Y496024D01*
X572224Y485110D01*
X572298Y485057D01*
X572368Y484997D01*
X572398Y484985D01*
X572424Y484966D01*
X572511Y484939D01*
X572596Y484905D01*
X572637Y484901D01*
X572659Y484894D01*
X572691Y484895D01*
X572763Y484887D01*
X597847Y484887D01*
X611887Y470847D01*
X611887Y405453D01*
X597847Y391413D01*
X547363Y391413D01*
X547272Y391399D01*
X547182Y391391D01*
X547152Y391379D01*
X547120Y391374D01*
X547039Y391331D01*
X546955Y391295D01*
X546923Y391269D01*
X546902Y391258D01*
X546880Y391235D01*
X546824Y391190D01*
X535910Y380276D01*
X535857Y380202D01*
X535797Y380132D01*
X535785Y380102D01*
X535766Y380076D01*
X535739Y379989D01*
X535705Y379904D01*
X535701Y379863D01*
X535694Y379841D01*
X535695Y379809D01*
X535687Y379737D01*
X535687Y344163D01*
X535701Y344072D01*
X535709Y343982D01*
X535721Y343952D01*
X535726Y343920D01*
X535769Y343839D01*
X535805Y343755D01*
X535831Y343723D01*
X535842Y343702D01*
X535865Y343680D01*
X535910Y343624D01*
X559524Y320010D01*
X559598Y319957D01*
X559668Y319897D01*
X559698Y319885D01*
X559724Y319866D01*
X559811Y319839D01*
X559896Y319805D01*
X559937Y319801D01*
X559959Y319794D01*
X559991Y319795D01*
X560063Y319787D01*
X610547Y319787D01*
X612110Y318224D01*
X635724Y294610D01*
X635798Y294557D01*
X635868Y294497D01*
X635898Y294485D01*
X635924Y294466D01*
X636011Y294439D01*
X636096Y294405D01*
X636137Y294401D01*
X636159Y294394D01*
X636191Y294395D01*
X636263Y294387D01*
X637874Y294387D01*
X637894Y294390D01*
X637913Y294388D01*
X638015Y294410D01*
X638117Y294426D01*
X638134Y294436D01*
X638154Y294440D01*
X638243Y294493D01*
X638334Y294542D01*
X638348Y294556D01*
X638365Y294566D01*
X638432Y294645D01*
X638504Y294720D01*
X638512Y294738D01*
X638525Y294753D01*
X638564Y294849D01*
X638607Y294943D01*
X638609Y294963D01*
X638617Y294981D01*
X638635Y295148D01*
X638635Y300272D01*
X639528Y301165D01*
X655872Y301165D01*
X656765Y300272D01*
X656765Y283919D01*
X656730Y283855D01*
X656684Y283792D01*
X656671Y283748D01*
X656649Y283708D01*
X656635Y283631D01*
X656612Y283557D01*
X656613Y283511D01*
X656605Y283466D01*
X656616Y283389D01*
X656618Y283311D01*
X656634Y283268D01*
X656641Y283222D01*
X656676Y283153D01*
X656703Y283080D01*
X656731Y283044D01*
X656752Y283003D01*
X656808Y282948D01*
X656856Y282888D01*
X656895Y282863D01*
X656928Y282831D01*
X657048Y282765D01*
X657063Y282755D01*
X657068Y282754D01*
X657075Y282750D01*
X658132Y282312D01*
X663312Y277132D01*
X666116Y270363D01*
X666116Y263037D01*
X663312Y256268D01*
X658132Y251088D01*
X651363Y248284D01*
X644037Y248284D01*
G37*
%LPD*%
%LPC*%
G36*
X631633Y220471D02*
X631633Y220471D01*
X626871Y225233D01*
X626871Y231967D01*
X627097Y232193D01*
X627109Y232209D01*
X627124Y232221D01*
X627180Y232308D01*
X627240Y232392D01*
X627246Y232411D01*
X627257Y232428D01*
X627282Y232529D01*
X627313Y232627D01*
X627312Y232647D01*
X627317Y232667D01*
X627309Y232770D01*
X627306Y232873D01*
X627300Y232892D01*
X627298Y232912D01*
X627258Y233007D01*
X627222Y233104D01*
X627209Y233120D01*
X627202Y233138D01*
X627097Y233269D01*
X608876Y251490D01*
X607313Y253053D01*
X607313Y290837D01*
X607299Y290928D01*
X607291Y291018D01*
X607279Y291048D01*
X607274Y291080D01*
X607231Y291161D01*
X607195Y291245D01*
X607169Y291277D01*
X607158Y291298D01*
X607135Y291320D01*
X607090Y291376D01*
X596176Y302290D01*
X596102Y302343D01*
X596032Y302403D01*
X596002Y302415D01*
X595976Y302434D01*
X595889Y302461D01*
X595804Y302495D01*
X595763Y302499D01*
X595741Y302506D01*
X595709Y302505D01*
X595638Y302513D01*
X545153Y302513D01*
X543590Y304076D01*
X519976Y327690D01*
X518413Y329253D01*
X518413Y381947D01*
X556290Y419824D01*
X556343Y419898D01*
X556403Y419968D01*
X556415Y419998D01*
X556434Y420024D01*
X556461Y420111D01*
X556495Y420196D01*
X556499Y420237D01*
X556506Y420259D01*
X556505Y420291D01*
X556513Y420363D01*
X556513Y422724D01*
X556510Y422744D01*
X556512Y422763D01*
X556490Y422865D01*
X556474Y422967D01*
X556464Y422984D01*
X556460Y423004D01*
X556407Y423093D01*
X556358Y423184D01*
X556344Y423198D01*
X556334Y423215D01*
X556255Y423282D01*
X556180Y423354D01*
X556162Y423362D01*
X556147Y423375D01*
X556051Y423414D01*
X555957Y423457D01*
X555937Y423459D01*
X555919Y423467D01*
X555752Y423485D01*
X551378Y423485D01*
X550485Y424378D01*
X550485Y439222D01*
X551378Y440115D01*
X566222Y440115D01*
X567115Y439222D01*
X567115Y424378D01*
X566222Y423485D01*
X561848Y423485D01*
X561828Y423482D01*
X561809Y423484D01*
X561707Y423462D01*
X561605Y423446D01*
X561588Y423436D01*
X561568Y423432D01*
X561479Y423379D01*
X561388Y423330D01*
X561374Y423316D01*
X561357Y423306D01*
X561290Y423227D01*
X561218Y423152D01*
X561210Y423134D01*
X561197Y423119D01*
X561158Y423023D01*
X561115Y422929D01*
X561113Y422909D01*
X561105Y422891D01*
X561087Y422724D01*
X561087Y418153D01*
X523210Y380276D01*
X523157Y380202D01*
X523097Y380132D01*
X523085Y380102D01*
X523066Y380076D01*
X523039Y379989D01*
X523005Y379904D01*
X523001Y379863D01*
X522994Y379841D01*
X522995Y379809D01*
X522987Y379737D01*
X522987Y331463D01*
X523001Y331372D01*
X523009Y331282D01*
X523021Y331252D01*
X523026Y331220D01*
X523069Y331139D01*
X523105Y331055D01*
X523131Y331023D01*
X523142Y331002D01*
X523165Y330980D01*
X523176Y330966D01*
X523183Y330955D01*
X523190Y330949D01*
X523210Y330924D01*
X546824Y307310D01*
X546898Y307257D01*
X546968Y307197D01*
X546998Y307185D01*
X547024Y307166D01*
X547111Y307139D01*
X547196Y307105D01*
X547237Y307101D01*
X547259Y307094D01*
X547291Y307095D01*
X547363Y307087D01*
X595637Y307087D01*
X595638Y307087D01*
X597847Y307087D01*
X611887Y293047D01*
X611887Y255263D01*
X611901Y255172D01*
X611909Y255082D01*
X611921Y255052D01*
X611926Y255020D01*
X611969Y254939D01*
X612005Y254855D01*
X612031Y254823D01*
X612042Y254802D01*
X612065Y254780D01*
X612110Y254724D01*
X630331Y236503D01*
X630347Y236491D01*
X630359Y236476D01*
X630426Y236433D01*
X630465Y236400D01*
X630487Y236391D01*
X630531Y236360D01*
X630550Y236354D01*
X630566Y236343D01*
X630667Y236318D01*
X630676Y236315D01*
X630693Y236308D01*
X630701Y236307D01*
X630766Y236287D01*
X630786Y236288D01*
X630805Y236283D01*
X630908Y236291D01*
X631011Y236294D01*
X631030Y236300D01*
X631050Y236302D01*
X631110Y236327D01*
X631121Y236329D01*
X631148Y236344D01*
X631243Y236378D01*
X631258Y236391D01*
X631276Y236398D01*
X631325Y236437D01*
X631339Y236444D01*
X631353Y236460D01*
X631407Y236503D01*
X631633Y236729D01*
X638367Y236729D01*
X643129Y231967D01*
X643129Y225233D01*
X638367Y220471D01*
X631633Y220471D01*
G37*
%LPD*%
%LPC*%
G36*
X773096Y182435D02*
X773096Y182435D01*
X770132Y183663D01*
X767863Y185932D01*
X766635Y188896D01*
X766635Y192104D01*
X767863Y195068D01*
X770132Y197337D01*
X771943Y198087D01*
X772043Y198149D01*
X772143Y198209D01*
X772147Y198214D01*
X772152Y198217D01*
X772227Y198307D01*
X772303Y198396D01*
X772305Y198402D01*
X772309Y198406D01*
X772351Y198515D01*
X772395Y198624D01*
X772396Y198631D01*
X772397Y198636D01*
X772398Y198654D01*
X772413Y198791D01*
X772413Y207609D01*
X772394Y207724D01*
X772377Y207840D01*
X772375Y207846D01*
X772374Y207852D01*
X772319Y207955D01*
X772266Y208060D01*
X772261Y208064D01*
X772258Y208069D01*
X772174Y208149D01*
X772090Y208232D01*
X772084Y208235D01*
X772080Y208239D01*
X772063Y208247D01*
X771943Y208313D01*
X770132Y209063D01*
X767863Y211332D01*
X766635Y214296D01*
X766635Y217504D01*
X767386Y219316D01*
X767412Y219430D01*
X767441Y219543D01*
X767440Y219549D01*
X767442Y219555D01*
X767431Y219672D01*
X767422Y219788D01*
X767419Y219794D01*
X767419Y219800D01*
X767371Y219908D01*
X767325Y220014D01*
X767321Y220020D01*
X767319Y220025D01*
X767306Y220039D01*
X767221Y220145D01*
X747013Y240353D01*
X747013Y265437D01*
X746999Y265528D01*
X746991Y265618D01*
X746979Y265648D01*
X746974Y265680D01*
X746931Y265761D01*
X746895Y265845D01*
X746869Y265877D01*
X746858Y265898D01*
X746835Y265920D01*
X746790Y265976D01*
X670813Y341953D01*
X670813Y379737D01*
X670799Y379828D01*
X670791Y379918D01*
X670779Y379948D01*
X670774Y379980D01*
X670731Y380061D01*
X670695Y380145D01*
X670669Y380177D01*
X670658Y380198D01*
X670635Y380220D01*
X670590Y380276D01*
X659676Y391190D01*
X659602Y391243D01*
X659532Y391303D01*
X659502Y391315D01*
X659476Y391334D01*
X659389Y391361D01*
X659304Y391395D01*
X659263Y391399D01*
X659241Y391406D01*
X659209Y391405D01*
X659137Y391413D01*
X657073Y391413D01*
X656958Y391394D01*
X656842Y391377D01*
X656836Y391375D01*
X656830Y391374D01*
X656728Y391319D01*
X656623Y391266D01*
X656618Y391261D01*
X656613Y391258D01*
X656533Y391174D01*
X656451Y391090D01*
X656447Y391084D01*
X656444Y391080D01*
X656436Y391063D01*
X656370Y390943D01*
X655385Y388565D01*
X652835Y386015D01*
X649503Y384635D01*
X645897Y384635D01*
X642565Y386015D01*
X640015Y388565D01*
X638635Y391897D01*
X638635Y395503D01*
X640015Y398835D01*
X642565Y401385D01*
X645897Y402765D01*
X649503Y402765D01*
X652835Y401385D01*
X655385Y398835D01*
X656370Y396457D01*
X656432Y396357D01*
X656491Y396257D01*
X656496Y396253D01*
X656499Y396248D01*
X656590Y396173D01*
X656678Y396097D01*
X656684Y396095D01*
X656689Y396091D01*
X656797Y396049D01*
X656906Y396005D01*
X656914Y396004D01*
X656918Y396003D01*
X656937Y396002D01*
X657073Y395987D01*
X661347Y395987D01*
X675387Y381947D01*
X675387Y344163D01*
X675401Y344072D01*
X675409Y343982D01*
X675421Y343952D01*
X675426Y343920D01*
X675469Y343839D01*
X675505Y343755D01*
X675531Y343723D01*
X675542Y343702D01*
X675565Y343680D01*
X675610Y343624D01*
X751587Y267647D01*
X751587Y242563D01*
X751601Y242472D01*
X751609Y242382D01*
X751621Y242352D01*
X751626Y242320D01*
X751669Y242239D01*
X751705Y242155D01*
X751731Y242123D01*
X751742Y242102D01*
X751765Y242080D01*
X751810Y242024D01*
X770455Y223379D01*
X770549Y223311D01*
X770643Y223241D01*
X770649Y223239D01*
X770654Y223236D01*
X770765Y223202D01*
X770877Y223165D01*
X770883Y223165D01*
X770889Y223163D01*
X771006Y223166D01*
X771123Y223168D01*
X771130Y223170D01*
X771135Y223170D01*
X771153Y223176D01*
X771284Y223214D01*
X773096Y223965D01*
X776304Y223965D01*
X779268Y222737D01*
X781537Y220468D01*
X782765Y217504D01*
X782765Y214296D01*
X781537Y211332D01*
X779268Y209063D01*
X777457Y208313D01*
X777357Y208251D01*
X777257Y208191D01*
X777253Y208186D01*
X777248Y208183D01*
X777173Y208093D01*
X777097Y208004D01*
X777095Y207998D01*
X777091Y207994D01*
X777049Y207885D01*
X777005Y207776D01*
X777004Y207769D01*
X777003Y207764D01*
X777002Y207746D01*
X776987Y207609D01*
X776987Y198791D01*
X777006Y198675D01*
X777023Y198560D01*
X777025Y198554D01*
X777026Y198548D01*
X777081Y198445D01*
X777134Y198340D01*
X777139Y198336D01*
X777142Y198331D01*
X777226Y198251D01*
X777310Y198168D01*
X777316Y198165D01*
X777320Y198161D01*
X777337Y198153D01*
X777457Y198087D01*
X779268Y197337D01*
X781537Y195068D01*
X782765Y192104D01*
X782765Y188896D01*
X781537Y185932D01*
X779268Y183663D01*
X776304Y182435D01*
X773096Y182435D01*
G37*
%LPD*%
%LPC*%
G36*
X773096Y284035D02*
X773096Y284035D01*
X770132Y285263D01*
X767863Y287532D01*
X766635Y290496D01*
X766635Y293704D01*
X767863Y296668D01*
X770132Y298937D01*
X771943Y299687D01*
X772043Y299749D01*
X772143Y299809D01*
X772147Y299814D01*
X772152Y299817D01*
X772227Y299907D01*
X772303Y299996D01*
X772305Y300002D01*
X772309Y300006D01*
X772351Y300115D01*
X772395Y300224D01*
X772396Y300231D01*
X772397Y300236D01*
X772398Y300254D01*
X772413Y300391D01*
X772413Y309209D01*
X772394Y309324D01*
X772377Y309440D01*
X772375Y309446D01*
X772374Y309452D01*
X772319Y309555D01*
X772266Y309660D01*
X772261Y309664D01*
X772258Y309669D01*
X772174Y309749D01*
X772090Y309832D01*
X772084Y309835D01*
X772080Y309839D01*
X772063Y309847D01*
X771943Y309913D01*
X770132Y310663D01*
X767863Y312932D01*
X766635Y315896D01*
X766635Y319104D01*
X767386Y320916D01*
X767412Y321030D01*
X767441Y321143D01*
X767440Y321149D01*
X767442Y321155D01*
X767431Y321272D01*
X767422Y321388D01*
X767419Y321394D01*
X767419Y321400D01*
X767371Y321508D01*
X767325Y321614D01*
X767321Y321620D01*
X767319Y321625D01*
X767306Y321639D01*
X767221Y321745D01*
X759713Y329253D01*
X759713Y354337D01*
X759699Y354428D01*
X759691Y354518D01*
X759679Y354548D01*
X759674Y354580D01*
X759631Y354661D01*
X759595Y354745D01*
X759569Y354777D01*
X759558Y354798D01*
X759535Y354820D01*
X759490Y354876D01*
X710476Y403890D01*
X708913Y405453D01*
X708913Y443238D01*
X708899Y443328D01*
X708891Y443419D01*
X708879Y443448D01*
X708874Y443480D01*
X708831Y443561D01*
X708795Y443645D01*
X708769Y443677D01*
X708758Y443698D01*
X708735Y443720D01*
X708690Y443776D01*
X697776Y454690D01*
X697702Y454743D01*
X697632Y454803D01*
X697602Y454815D01*
X697576Y454834D01*
X697489Y454861D01*
X697404Y454895D01*
X697363Y454899D01*
X697341Y454906D01*
X697309Y454905D01*
X697237Y454913D01*
X661663Y454913D01*
X661572Y454899D01*
X661482Y454891D01*
X661452Y454879D01*
X661420Y454874D01*
X661339Y454831D01*
X661255Y454795D01*
X661223Y454769D01*
X661202Y454758D01*
X661180Y454735D01*
X661124Y454690D01*
X655945Y449511D01*
X655877Y449416D01*
X655807Y449322D01*
X655805Y449316D01*
X655801Y449311D01*
X655767Y449200D01*
X655731Y449088D01*
X655731Y449082D01*
X655729Y449076D01*
X655732Y448959D01*
X655733Y448842D01*
X655735Y448835D01*
X655735Y448830D01*
X655742Y448813D01*
X655780Y448681D01*
X656765Y446303D01*
X656765Y442697D01*
X655385Y439365D01*
X652835Y436815D01*
X649503Y435435D01*
X645897Y435435D01*
X642565Y436815D01*
X640015Y439365D01*
X638635Y442697D01*
X638635Y446303D01*
X640015Y449635D01*
X642565Y452185D01*
X645897Y453565D01*
X649503Y453565D01*
X651881Y452580D01*
X651995Y452553D01*
X652108Y452524D01*
X652115Y452525D01*
X652121Y452524D01*
X652237Y452535D01*
X652354Y452544D01*
X652359Y452546D01*
X652366Y452547D01*
X652473Y452594D01*
X652580Y452640D01*
X652586Y452645D01*
X652590Y452647D01*
X652604Y452659D01*
X652711Y452745D01*
X659453Y459487D01*
X699447Y459487D01*
X711924Y447010D01*
X713487Y445447D01*
X713487Y407662D01*
X713501Y407572D01*
X713509Y407481D01*
X713521Y407452D01*
X713526Y407420D01*
X713569Y407339D01*
X713605Y407255D01*
X713631Y407223D01*
X713642Y407202D01*
X713665Y407180D01*
X713710Y407124D01*
X762724Y358110D01*
X764287Y356547D01*
X764287Y331463D01*
X764301Y331372D01*
X764309Y331282D01*
X764321Y331252D01*
X764326Y331220D01*
X764369Y331139D01*
X764405Y331055D01*
X764431Y331023D01*
X764442Y331002D01*
X764465Y330980D01*
X764476Y330966D01*
X764483Y330955D01*
X764490Y330949D01*
X764510Y330924D01*
X770455Y324979D01*
X770550Y324911D01*
X770643Y324841D01*
X770649Y324839D01*
X770654Y324836D01*
X770766Y324801D01*
X770877Y324765D01*
X770883Y324765D01*
X770889Y324763D01*
X771006Y324766D01*
X771123Y324768D01*
X771130Y324770D01*
X771135Y324770D01*
X771153Y324776D01*
X771284Y324814D01*
X773096Y325565D01*
X776304Y325565D01*
X779268Y324337D01*
X781537Y322068D01*
X782765Y319104D01*
X782765Y315896D01*
X781537Y312932D01*
X779268Y310663D01*
X777457Y309913D01*
X777357Y309851D01*
X777257Y309791D01*
X777253Y309786D01*
X777248Y309783D01*
X777173Y309693D01*
X777097Y309604D01*
X777095Y309598D01*
X777091Y309594D01*
X777049Y309485D01*
X777005Y309376D01*
X777004Y309369D01*
X777003Y309364D01*
X777002Y309346D01*
X776987Y309209D01*
X776987Y300391D01*
X777006Y300275D01*
X777023Y300160D01*
X777025Y300154D01*
X777026Y300148D01*
X777081Y300045D01*
X777134Y299940D01*
X777139Y299936D01*
X777142Y299931D01*
X777226Y299851D01*
X777310Y299768D01*
X777316Y299765D01*
X777320Y299761D01*
X777337Y299753D01*
X777457Y299687D01*
X779268Y298937D01*
X781537Y296668D01*
X782765Y293704D01*
X782765Y290496D01*
X781537Y287532D01*
X779268Y285263D01*
X776304Y284035D01*
X773096Y284035D01*
G37*
%LPD*%
%LPC*%
G36*
X773096Y233235D02*
X773096Y233235D01*
X770132Y234463D01*
X767863Y236732D01*
X766635Y239696D01*
X766635Y242904D01*
X767863Y245868D01*
X770132Y248137D01*
X771943Y248887D01*
X772043Y248949D01*
X772143Y249009D01*
X772147Y249014D01*
X772152Y249017D01*
X772227Y249107D01*
X772303Y249196D01*
X772305Y249202D01*
X772309Y249206D01*
X772351Y249315D01*
X772395Y249424D01*
X772396Y249431D01*
X772397Y249436D01*
X772398Y249454D01*
X772413Y249591D01*
X772413Y258409D01*
X772394Y258524D01*
X772377Y258640D01*
X772375Y258646D01*
X772374Y258652D01*
X772319Y258755D01*
X772266Y258860D01*
X772261Y258864D01*
X772258Y258869D01*
X772174Y258949D01*
X772090Y259032D01*
X772084Y259035D01*
X772080Y259039D01*
X772063Y259047D01*
X771943Y259113D01*
X770132Y259863D01*
X767863Y262132D01*
X766635Y265096D01*
X766635Y268304D01*
X767386Y270116D01*
X767412Y270230D01*
X767441Y270343D01*
X767440Y270349D01*
X767442Y270355D01*
X767431Y270472D01*
X767422Y270588D01*
X767419Y270594D01*
X767419Y270600D01*
X767371Y270708D01*
X767325Y270814D01*
X767321Y270820D01*
X767319Y270825D01*
X767306Y270839D01*
X767221Y270945D01*
X685076Y353090D01*
X683513Y354653D01*
X683513Y392437D01*
X683499Y392528D01*
X683491Y392618D01*
X683479Y392648D01*
X683474Y392680D01*
X683431Y392761D01*
X683395Y392845D01*
X683369Y392877D01*
X683358Y392898D01*
X683335Y392920D01*
X683290Y392976D01*
X659676Y416590D01*
X659602Y416643D01*
X659532Y416703D01*
X659502Y416715D01*
X659476Y416734D01*
X659389Y416761D01*
X659304Y416795D01*
X659263Y416799D01*
X659241Y416806D01*
X659209Y416805D01*
X659137Y416813D01*
X657073Y416813D01*
X656958Y416794D01*
X656842Y416777D01*
X656836Y416775D01*
X656830Y416774D01*
X656728Y416719D01*
X656623Y416666D01*
X656618Y416661D01*
X656613Y416658D01*
X656533Y416574D01*
X656451Y416490D01*
X656447Y416484D01*
X656444Y416480D01*
X656436Y416463D01*
X656370Y416343D01*
X655385Y413965D01*
X652835Y411415D01*
X649503Y410035D01*
X645897Y410035D01*
X642565Y411415D01*
X640015Y413965D01*
X638635Y417297D01*
X638635Y420903D01*
X640015Y424235D01*
X642565Y426785D01*
X645897Y428165D01*
X649503Y428165D01*
X652835Y426785D01*
X655385Y424235D01*
X656370Y421857D01*
X656432Y421757D01*
X656491Y421657D01*
X656496Y421653D01*
X656499Y421648D01*
X656590Y421573D01*
X656678Y421497D01*
X656684Y421495D01*
X656689Y421491D01*
X656797Y421449D01*
X656906Y421405D01*
X656914Y421404D01*
X656918Y421403D01*
X656937Y421402D01*
X657073Y421387D01*
X661347Y421387D01*
X688087Y394647D01*
X688087Y356863D01*
X688101Y356772D01*
X688109Y356682D01*
X688121Y356652D01*
X688126Y356620D01*
X688169Y356539D01*
X688205Y356455D01*
X688231Y356423D01*
X688242Y356402D01*
X688265Y356380D01*
X688310Y356324D01*
X770455Y274179D01*
X770549Y274111D01*
X770643Y274041D01*
X770649Y274039D01*
X770654Y274036D01*
X770765Y274002D01*
X770877Y273965D01*
X770883Y273965D01*
X770889Y273963D01*
X771006Y273966D01*
X771123Y273968D01*
X771130Y273970D01*
X771135Y273970D01*
X771153Y273976D01*
X771284Y274014D01*
X773096Y274765D01*
X776304Y274765D01*
X779268Y273537D01*
X781537Y271268D01*
X782765Y268304D01*
X782765Y265096D01*
X781537Y262132D01*
X779268Y259863D01*
X777457Y259113D01*
X777357Y259051D01*
X777257Y258991D01*
X777253Y258986D01*
X777248Y258983D01*
X777173Y258893D01*
X777097Y258804D01*
X777095Y258798D01*
X777091Y258794D01*
X777049Y258685D01*
X777005Y258576D01*
X777004Y258569D01*
X777003Y258564D01*
X777002Y258546D01*
X776987Y258409D01*
X776987Y249591D01*
X777006Y249476D01*
X777023Y249360D01*
X777025Y249354D01*
X777026Y249348D01*
X777081Y249245D01*
X777134Y249140D01*
X777139Y249136D01*
X777142Y249131D01*
X777226Y249051D01*
X777310Y248968D01*
X777316Y248965D01*
X777320Y248961D01*
X777337Y248953D01*
X777457Y248887D01*
X779268Y248137D01*
X781537Y245868D01*
X782765Y242904D01*
X782765Y239696D01*
X781537Y236732D01*
X779268Y234463D01*
X776304Y233235D01*
X773096Y233235D01*
G37*
%LPD*%
%LPC*%
G36*
X773096Y334835D02*
X773096Y334835D01*
X770132Y336063D01*
X767863Y338332D01*
X766635Y341296D01*
X766635Y344504D01*
X767863Y347468D01*
X770132Y349737D01*
X771943Y350487D01*
X772043Y350549D01*
X772143Y350609D01*
X772147Y350614D01*
X772152Y350617D01*
X772227Y350707D01*
X772303Y350796D01*
X772305Y350802D01*
X772309Y350806D01*
X772351Y350915D01*
X772395Y351024D01*
X772396Y351031D01*
X772397Y351036D01*
X772398Y351054D01*
X772413Y351191D01*
X772413Y360009D01*
X772394Y360124D01*
X772377Y360240D01*
X772375Y360246D01*
X772374Y360252D01*
X772319Y360355D01*
X772266Y360460D01*
X772261Y360464D01*
X772258Y360469D01*
X772174Y360549D01*
X772090Y360632D01*
X772084Y360635D01*
X772080Y360639D01*
X772063Y360647D01*
X771943Y360713D01*
X770132Y361463D01*
X767863Y363732D01*
X766635Y366696D01*
X766635Y369904D01*
X767386Y371716D01*
X767412Y371830D01*
X767441Y371943D01*
X767440Y371949D01*
X767442Y371955D01*
X767431Y372072D01*
X767422Y372188D01*
X767419Y372194D01*
X767419Y372200D01*
X767371Y372308D01*
X767325Y372414D01*
X767321Y372420D01*
X767319Y372425D01*
X767306Y372439D01*
X767221Y372545D01*
X721613Y418153D01*
X721613Y455937D01*
X721599Y456028D01*
X721591Y456118D01*
X721579Y456148D01*
X721574Y456180D01*
X721531Y456261D01*
X721495Y456345D01*
X721469Y456377D01*
X721458Y456398D01*
X721435Y456420D01*
X721390Y456476D01*
X710476Y467390D01*
X710402Y467443D01*
X710332Y467503D01*
X710302Y467515D01*
X710276Y467534D01*
X710189Y467561D01*
X710104Y467595D01*
X710063Y467599D01*
X710041Y467606D01*
X710009Y467605D01*
X709937Y467613D01*
X657073Y467613D01*
X656958Y467594D01*
X656842Y467577D01*
X656836Y467575D01*
X656830Y467574D01*
X656728Y467519D01*
X656623Y467466D01*
X656618Y467461D01*
X656613Y467458D01*
X656533Y467374D01*
X656451Y467290D01*
X656447Y467284D01*
X656444Y467280D01*
X656436Y467263D01*
X656370Y467143D01*
X655385Y464765D01*
X652835Y462215D01*
X649503Y460835D01*
X645897Y460835D01*
X642565Y462215D01*
X640015Y464765D01*
X638635Y468097D01*
X638635Y471703D01*
X640015Y475035D01*
X642565Y477585D01*
X645897Y478965D01*
X649503Y478965D01*
X652835Y477585D01*
X655385Y475035D01*
X656370Y472657D01*
X656432Y472557D01*
X656491Y472457D01*
X656496Y472453D01*
X656499Y472448D01*
X656590Y472373D01*
X656678Y472297D01*
X656684Y472295D01*
X656689Y472291D01*
X656797Y472249D01*
X656906Y472205D01*
X656914Y472204D01*
X656918Y472203D01*
X656937Y472202D01*
X657073Y472187D01*
X712147Y472187D01*
X726187Y458147D01*
X726187Y420363D01*
X726201Y420272D01*
X726209Y420182D01*
X726221Y420152D01*
X726226Y420120D01*
X726269Y420039D01*
X726305Y419955D01*
X726331Y419923D01*
X726342Y419902D01*
X726365Y419880D01*
X726410Y419824D01*
X770455Y375779D01*
X770549Y375711D01*
X770643Y375641D01*
X770649Y375639D01*
X770654Y375636D01*
X770765Y375602D01*
X770877Y375565D01*
X770883Y375565D01*
X770889Y375563D01*
X771006Y375566D01*
X771123Y375568D01*
X771130Y375570D01*
X771135Y375570D01*
X771153Y375576D01*
X771284Y375614D01*
X773096Y376365D01*
X776304Y376365D01*
X779268Y375137D01*
X781537Y372868D01*
X782765Y369904D01*
X782765Y366696D01*
X781537Y363732D01*
X779268Y361463D01*
X777457Y360713D01*
X777357Y360651D01*
X777257Y360591D01*
X777253Y360586D01*
X777248Y360583D01*
X777173Y360493D01*
X777097Y360404D01*
X777095Y360398D01*
X777091Y360394D01*
X777049Y360285D01*
X777005Y360176D01*
X777004Y360169D01*
X777003Y360164D01*
X777002Y360146D01*
X776987Y360009D01*
X776987Y351191D01*
X777006Y351075D01*
X777023Y350960D01*
X777025Y350954D01*
X777026Y350948D01*
X777081Y350845D01*
X777134Y350740D01*
X777139Y350736D01*
X777142Y350731D01*
X777226Y350651D01*
X777310Y350568D01*
X777316Y350565D01*
X777320Y350561D01*
X777337Y350553D01*
X777457Y350487D01*
X779268Y349737D01*
X781537Y347468D01*
X782765Y344504D01*
X782765Y341296D01*
X781537Y338332D01*
X779268Y336063D01*
X776304Y334835D01*
X773096Y334835D01*
G37*
%LPD*%
%LPC*%
G36*
X341296Y309435D02*
X341296Y309435D01*
X338332Y310663D01*
X336063Y312932D01*
X334835Y315896D01*
X334835Y319104D01*
X336063Y322068D01*
X338332Y324337D01*
X341296Y325565D01*
X344504Y325565D01*
X346316Y324814D01*
X346430Y324788D01*
X346543Y324759D01*
X346549Y324760D01*
X346555Y324758D01*
X346672Y324769D01*
X346788Y324778D01*
X346794Y324781D01*
X346800Y324781D01*
X346908Y324829D01*
X347014Y324875D01*
X347020Y324879D01*
X347025Y324881D01*
X347039Y324894D01*
X347145Y324979D01*
X416590Y394424D01*
X416643Y394498D01*
X416703Y394568D01*
X416715Y394598D01*
X416734Y394624D01*
X416761Y394711D01*
X416795Y394796D01*
X416799Y394837D01*
X416806Y394859D01*
X416805Y394891D01*
X416813Y394963D01*
X416813Y445447D01*
X430853Y459487D01*
X455938Y459487D01*
X456028Y459501D01*
X456119Y459509D01*
X456148Y459521D01*
X456180Y459526D01*
X456261Y459569D01*
X456345Y459605D01*
X456377Y459631D01*
X456398Y459642D01*
X456420Y459665D01*
X456476Y459710D01*
X468953Y472187D01*
X485927Y472187D01*
X486042Y472206D01*
X486158Y472223D01*
X486164Y472225D01*
X486170Y472226D01*
X486272Y472281D01*
X486377Y472334D01*
X486382Y472339D01*
X486387Y472342D01*
X486467Y472426D01*
X486549Y472510D01*
X486553Y472516D01*
X486556Y472520D01*
X486564Y472537D01*
X486630Y472657D01*
X487615Y475035D01*
X490165Y477585D01*
X493497Y478965D01*
X497103Y478965D01*
X500435Y477585D01*
X502985Y475035D01*
X504365Y471703D01*
X504365Y468097D01*
X502985Y464765D01*
X500435Y462215D01*
X497103Y460835D01*
X493497Y460835D01*
X490165Y462215D01*
X487615Y464765D01*
X486630Y467143D01*
X486568Y467243D01*
X486509Y467343D01*
X486504Y467347D01*
X486501Y467352D01*
X486410Y467427D01*
X486322Y467503D01*
X486316Y467505D01*
X486311Y467509D01*
X486203Y467551D01*
X486094Y467595D01*
X486086Y467596D01*
X486082Y467597D01*
X486063Y467598D01*
X485927Y467613D01*
X471163Y467613D01*
X471072Y467599D01*
X470982Y467591D01*
X470952Y467579D01*
X470920Y467574D01*
X470839Y467531D01*
X470755Y467495D01*
X470723Y467469D01*
X470702Y467458D01*
X470680Y467435D01*
X470624Y467390D01*
X459710Y456476D01*
X458147Y454913D01*
X433063Y454913D01*
X432972Y454899D01*
X432882Y454891D01*
X432852Y454879D01*
X432820Y454874D01*
X432739Y454831D01*
X432655Y454795D01*
X432623Y454769D01*
X432602Y454758D01*
X432580Y454735D01*
X432524Y454690D01*
X421610Y443776D01*
X421557Y443702D01*
X421497Y443632D01*
X421485Y443602D01*
X421466Y443576D01*
X421439Y443489D01*
X421405Y443404D01*
X421401Y443363D01*
X421394Y443341D01*
X421395Y443309D01*
X421387Y443237D01*
X421387Y392753D01*
X350379Y321745D01*
X350311Y321651D01*
X350241Y321557D01*
X350239Y321551D01*
X350236Y321546D01*
X350202Y321435D01*
X350165Y321323D01*
X350165Y321317D01*
X350163Y321311D01*
X350166Y321194D01*
X350168Y321077D01*
X350170Y321070D01*
X350170Y321065D01*
X350176Y321047D01*
X350214Y320916D01*
X350965Y319104D01*
X350965Y315896D01*
X349737Y312932D01*
X347468Y310663D01*
X344504Y309435D01*
X341296Y309435D01*
G37*
%LPD*%
%LPC*%
G36*
X491637Y248284D02*
X491637Y248284D01*
X484868Y251088D01*
X479688Y256268D01*
X476884Y263037D01*
X476884Y270363D01*
X479688Y277132D01*
X484868Y282312D01*
X489048Y284044D01*
X489087Y284068D01*
X489131Y284084D01*
X489191Y284132D01*
X489257Y284173D01*
X489287Y284209D01*
X489323Y284237D01*
X489365Y284303D01*
X489414Y284363D01*
X489431Y284405D01*
X489456Y284444D01*
X489475Y284520D01*
X489502Y284592D01*
X489504Y284638D01*
X489516Y284683D01*
X489510Y284760D01*
X489513Y284838D01*
X489500Y284882D01*
X489497Y284928D01*
X489466Y284999D01*
X489444Y285074D01*
X489418Y285112D01*
X489400Y285154D01*
X489315Y285261D01*
X489304Y285276D01*
X489300Y285279D01*
X489295Y285285D01*
X487615Y286965D01*
X486235Y290297D01*
X486235Y293903D01*
X487615Y297235D01*
X490165Y299785D01*
X493497Y301165D01*
X497103Y301165D01*
X500435Y299785D01*
X502985Y297235D01*
X504365Y293903D01*
X504365Y290297D01*
X502985Y286965D01*
X501305Y285285D01*
X501278Y285248D01*
X501244Y285217D01*
X501206Y285149D01*
X501161Y285085D01*
X501148Y285042D01*
X501125Y285001D01*
X501112Y284925D01*
X501089Y284850D01*
X501090Y284804D01*
X501082Y284759D01*
X501093Y284682D01*
X501095Y284604D01*
X501111Y284561D01*
X501118Y284516D01*
X501153Y284447D01*
X501180Y284373D01*
X501208Y284338D01*
X501229Y284297D01*
X501285Y284242D01*
X501333Y284181D01*
X501372Y284157D01*
X501405Y284124D01*
X501524Y284058D01*
X501540Y284048D01*
X501545Y284047D01*
X501552Y284044D01*
X505732Y282312D01*
X510912Y277132D01*
X513716Y270363D01*
X513716Y263037D01*
X510912Y256268D01*
X505732Y251088D01*
X498963Y248284D01*
X491637Y248284D01*
G37*
%LPD*%
%LPC*%
G36*
X645897Y562435D02*
X645897Y562435D01*
X642565Y563815D01*
X640015Y566365D01*
X639030Y568743D01*
X638968Y568843D01*
X638909Y568943D01*
X638904Y568947D01*
X638901Y568952D01*
X638810Y569027D01*
X638722Y569103D01*
X638716Y569105D01*
X638711Y569109D01*
X638603Y569151D01*
X638494Y569195D01*
X638486Y569196D01*
X638482Y569197D01*
X638463Y569198D01*
X638327Y569213D01*
X621353Y569213D01*
X596176Y594390D01*
X596102Y594443D01*
X596032Y594503D01*
X596002Y594515D01*
X595976Y594534D01*
X595889Y594561D01*
X595804Y594595D01*
X595763Y594599D01*
X595741Y594606D01*
X595709Y594605D01*
X595637Y594613D01*
X583253Y594613D01*
X556513Y621353D01*
X556513Y639139D01*
X556494Y639254D01*
X556477Y639370D01*
X556475Y639375D01*
X556474Y639381D01*
X556419Y639484D01*
X556366Y639589D01*
X556361Y639593D01*
X556358Y639599D01*
X556274Y639679D01*
X556190Y639761D01*
X556184Y639765D01*
X556180Y639768D01*
X556163Y639776D01*
X556043Y639842D01*
X554090Y640651D01*
X551751Y642990D01*
X550485Y646046D01*
X550485Y649354D01*
X551751Y652410D01*
X554090Y654749D01*
X557146Y656015D01*
X560454Y656015D01*
X563510Y654749D01*
X565849Y652410D01*
X567115Y649354D01*
X567115Y646046D01*
X565849Y642990D01*
X563510Y640651D01*
X561557Y639842D01*
X561457Y639781D01*
X561357Y639721D01*
X561353Y639716D01*
X561348Y639712D01*
X561272Y639622D01*
X561197Y639534D01*
X561195Y639528D01*
X561191Y639523D01*
X561149Y639415D01*
X561105Y639305D01*
X561104Y639298D01*
X561103Y639293D01*
X561102Y639275D01*
X561087Y639139D01*
X561087Y623563D01*
X561101Y623472D01*
X561109Y623382D01*
X561121Y623352D01*
X561126Y623320D01*
X561169Y623239D01*
X561205Y623155D01*
X561231Y623123D01*
X561242Y623102D01*
X561265Y623080D01*
X561310Y623024D01*
X584924Y599410D01*
X584998Y599357D01*
X585068Y599297D01*
X585098Y599285D01*
X585124Y599266D01*
X585211Y599239D01*
X585296Y599205D01*
X585337Y599201D01*
X585359Y599194D01*
X585391Y599195D01*
X585463Y599187D01*
X597847Y599187D01*
X623024Y574010D01*
X623098Y573957D01*
X623168Y573897D01*
X623198Y573885D01*
X623224Y573866D01*
X623311Y573839D01*
X623396Y573805D01*
X623437Y573801D01*
X623459Y573794D01*
X623491Y573795D01*
X623563Y573787D01*
X638327Y573787D01*
X638442Y573806D01*
X638558Y573823D01*
X638564Y573825D01*
X638570Y573826D01*
X638672Y573881D01*
X638777Y573934D01*
X638782Y573939D01*
X638787Y573942D01*
X638867Y574026D01*
X638949Y574110D01*
X638953Y574116D01*
X638956Y574120D01*
X638964Y574137D01*
X639030Y574257D01*
X640015Y576635D01*
X642565Y579185D01*
X645897Y580565D01*
X649503Y580565D01*
X652835Y579185D01*
X655385Y576635D01*
X656765Y573303D01*
X656765Y569697D01*
X655385Y566365D01*
X652835Y563815D01*
X649503Y562435D01*
X645897Y562435D01*
G37*
%LPD*%
%LPC*%
G36*
X645897Y308435D02*
X645897Y308435D01*
X642565Y309815D01*
X640015Y312365D01*
X639030Y314743D01*
X638968Y314843D01*
X638909Y314943D01*
X638904Y314947D01*
X638901Y314952D01*
X638810Y315027D01*
X638722Y315103D01*
X638716Y315105D01*
X638711Y315109D01*
X638603Y315151D01*
X638494Y315195D01*
X638486Y315196D01*
X638482Y315197D01*
X638463Y315198D01*
X638327Y315213D01*
X634053Y315213D01*
X632490Y316776D01*
X621576Y327690D01*
X621502Y327743D01*
X621432Y327803D01*
X621402Y327815D01*
X621376Y327834D01*
X621289Y327861D01*
X621204Y327895D01*
X621163Y327899D01*
X621141Y327906D01*
X621109Y327905D01*
X621038Y327913D01*
X583253Y327913D01*
X563237Y347929D01*
X563142Y347997D01*
X563048Y348067D01*
X563042Y348069D01*
X563037Y348073D01*
X562926Y348107D01*
X562814Y348143D01*
X562808Y348143D01*
X562802Y348145D01*
X562685Y348142D01*
X562568Y348141D01*
X562561Y348139D01*
X562556Y348139D01*
X562539Y348132D01*
X562407Y348094D01*
X560454Y347285D01*
X557146Y347285D01*
X554090Y348551D01*
X551751Y350890D01*
X550485Y353946D01*
X550485Y357254D01*
X551751Y360310D01*
X554090Y362649D01*
X557146Y363915D01*
X560454Y363915D01*
X563510Y362649D01*
X565849Y360310D01*
X567115Y357254D01*
X567115Y353946D01*
X566306Y351993D01*
X566279Y351879D01*
X566250Y351766D01*
X566251Y351759D01*
X566249Y351753D01*
X566260Y351637D01*
X566270Y351521D01*
X566272Y351515D01*
X566273Y351508D01*
X566320Y351401D01*
X566366Y351294D01*
X566371Y351288D01*
X566373Y351284D01*
X566385Y351270D01*
X566471Y351163D01*
X584924Y332710D01*
X584998Y332657D01*
X585068Y332597D01*
X585098Y332585D01*
X585124Y332566D01*
X585211Y332539D01*
X585296Y332505D01*
X585337Y332501D01*
X585359Y332494D01*
X585391Y332495D01*
X585463Y332487D01*
X623247Y332487D01*
X624810Y330924D01*
X635724Y320010D01*
X635798Y319957D01*
X635868Y319897D01*
X635898Y319885D01*
X635924Y319866D01*
X636011Y319839D01*
X636096Y319805D01*
X636137Y319801D01*
X636159Y319794D01*
X636191Y319795D01*
X636262Y319787D01*
X638327Y319787D01*
X638442Y319806D01*
X638558Y319823D01*
X638564Y319825D01*
X638570Y319826D01*
X638672Y319881D01*
X638777Y319934D01*
X638782Y319939D01*
X638787Y319942D01*
X638867Y320026D01*
X638949Y320110D01*
X638953Y320116D01*
X638956Y320120D01*
X638964Y320137D01*
X639030Y320257D01*
X640015Y322635D01*
X642565Y325185D01*
X645897Y326565D01*
X649503Y326565D01*
X652835Y325185D01*
X655385Y322635D01*
X656765Y319303D01*
X656765Y315697D01*
X655385Y312365D01*
X652835Y309815D01*
X649503Y308435D01*
X645897Y308435D01*
G37*
%LPD*%
%LPC*%
G36*
X517333Y220471D02*
X517333Y220471D01*
X512571Y225233D01*
X512571Y231967D01*
X517333Y236729D01*
X517652Y236729D01*
X517672Y236732D01*
X517691Y236730D01*
X517793Y236752D01*
X517895Y236768D01*
X517912Y236778D01*
X517932Y236782D01*
X518021Y236835D01*
X518112Y236884D01*
X518126Y236898D01*
X518143Y236908D01*
X518210Y236987D01*
X518282Y237062D01*
X518290Y237080D01*
X518303Y237095D01*
X518342Y237191D01*
X518385Y237285D01*
X518387Y237305D01*
X518395Y237323D01*
X518413Y237490D01*
X518413Y242247D01*
X550262Y274096D01*
X550315Y274170D01*
X550375Y274240D01*
X550387Y274270D01*
X550406Y274296D01*
X550433Y274383D01*
X550467Y274468D01*
X550471Y274509D01*
X550478Y274531D01*
X550477Y274563D01*
X550485Y274635D01*
X550485Y286822D01*
X551378Y287715D01*
X566222Y287715D01*
X567115Y286822D01*
X567115Y271978D01*
X566222Y271085D01*
X554035Y271085D01*
X553944Y271071D01*
X553854Y271063D01*
X553824Y271051D01*
X553792Y271046D01*
X553711Y271003D01*
X553627Y270967D01*
X553595Y270941D01*
X553574Y270930D01*
X553552Y270907D01*
X553496Y270862D01*
X523210Y240576D01*
X523157Y240502D01*
X523097Y240432D01*
X523085Y240402D01*
X523066Y240376D01*
X523039Y240289D01*
X523005Y240204D01*
X523001Y240163D01*
X522994Y240141D01*
X522995Y240109D01*
X522987Y240037D01*
X522987Y237490D01*
X522990Y237470D01*
X522988Y237451D01*
X523010Y237349D01*
X523026Y237247D01*
X523036Y237230D01*
X523040Y237210D01*
X523093Y237121D01*
X523142Y237030D01*
X523156Y237016D01*
X523166Y236999D01*
X523245Y236932D01*
X523320Y236860D01*
X523338Y236852D01*
X523353Y236839D01*
X523449Y236800D01*
X523543Y236757D01*
X523563Y236755D01*
X523581Y236747D01*
X523748Y236729D01*
X524067Y236729D01*
X528829Y231967D01*
X528829Y225233D01*
X524067Y220471D01*
X517333Y220471D01*
G37*
%LPD*%
%LPC*%
G36*
X709229Y371093D02*
X709229Y371093D01*
X705588Y372601D01*
X702801Y375388D01*
X701293Y379029D01*
X701293Y382971D01*
X702801Y386612D01*
X705588Y389399D01*
X709229Y390907D01*
X713171Y390907D01*
X716812Y389399D01*
X719599Y386612D01*
X721107Y382971D01*
X721107Y379029D01*
X719599Y375388D01*
X716812Y372601D01*
X713171Y371093D01*
X709229Y371093D01*
G37*
%LPD*%
%LPC*%
G36*
X683829Y523493D02*
X683829Y523493D01*
X680188Y525001D01*
X677401Y527788D01*
X675893Y531429D01*
X675893Y535371D01*
X677401Y539012D01*
X680188Y541799D01*
X683829Y543307D01*
X687771Y543307D01*
X691412Y541799D01*
X694199Y539012D01*
X695707Y535371D01*
X695707Y531429D01*
X694199Y527788D01*
X691412Y525001D01*
X687771Y523493D01*
X683829Y523493D01*
G37*
%LPD*%
%LPC*%
G36*
X683829Y421893D02*
X683829Y421893D01*
X680188Y423401D01*
X677401Y426188D01*
X675893Y429829D01*
X675893Y433771D01*
X677401Y437412D01*
X680188Y440199D01*
X683829Y441707D01*
X687771Y441707D01*
X691412Y440199D01*
X694199Y437412D01*
X695707Y433771D01*
X695707Y429829D01*
X694199Y426188D01*
X691412Y423401D01*
X687771Y421893D01*
X683829Y421893D01*
G37*
%LPD*%
%LPC*%
G36*
X709229Y269493D02*
X709229Y269493D01*
X705588Y271001D01*
X702801Y273788D01*
X701293Y277429D01*
X701293Y281371D01*
X702801Y285012D01*
X705588Y287799D01*
X709229Y289307D01*
X713171Y289307D01*
X716812Y287799D01*
X719599Y285012D01*
X721107Y281371D01*
X721107Y277429D01*
X719599Y273788D01*
X716812Y271001D01*
X713171Y269493D01*
X709229Y269493D01*
G37*
%LPD*%
%LPC*%
G36*
X455229Y218693D02*
X455229Y218693D01*
X451588Y220201D01*
X448801Y222988D01*
X447293Y226629D01*
X447293Y230571D01*
X448801Y234212D01*
X451588Y236999D01*
X455229Y238507D01*
X459171Y238507D01*
X462812Y236999D01*
X465599Y234212D01*
X467107Y230571D01*
X467107Y226629D01*
X465599Y222988D01*
X462812Y220201D01*
X459171Y218693D01*
X455229Y218693D01*
G37*
%LPD*%
%LPC*%
G36*
X569529Y218693D02*
X569529Y218693D01*
X565888Y220201D01*
X563101Y222988D01*
X561593Y226629D01*
X561593Y230571D01*
X563101Y234212D01*
X565888Y236999D01*
X569529Y238507D01*
X573471Y238507D01*
X577112Y236999D01*
X579899Y234212D01*
X581407Y230571D01*
X581407Y226629D01*
X579899Y222988D01*
X577112Y220201D01*
X573471Y218693D01*
X569529Y218693D01*
G37*
%LPD*%
%LPC*%
G36*
X683829Y218693D02*
X683829Y218693D01*
X680188Y220201D01*
X677401Y222988D01*
X675893Y226629D01*
X675893Y230571D01*
X677401Y234212D01*
X680188Y236999D01*
X683829Y238507D01*
X687771Y238507D01*
X691412Y236999D01*
X694199Y234212D01*
X695707Y230571D01*
X695707Y226629D01*
X694199Y222988D01*
X691412Y220201D01*
X687771Y218693D01*
X683829Y218693D01*
G37*
%LPD*%
%LPC*%
G36*
X683829Y117093D02*
X683829Y117093D01*
X680188Y118601D01*
X677401Y121388D01*
X675893Y125029D01*
X675893Y128971D01*
X677401Y132612D01*
X680188Y135399D01*
X683829Y136907D01*
X687771Y136907D01*
X691412Y135399D01*
X694199Y132612D01*
X695707Y128971D01*
X695707Y125029D01*
X694199Y121388D01*
X691412Y118601D01*
X687771Y117093D01*
X683829Y117093D01*
G37*
%LPD*%
%LPC*%
G36*
X455229Y117093D02*
X455229Y117093D01*
X451588Y118601D01*
X448801Y121388D01*
X447293Y125029D01*
X447293Y128971D01*
X448801Y132612D01*
X451588Y135399D01*
X455229Y136907D01*
X459171Y136907D01*
X462812Y135399D01*
X465599Y132612D01*
X467107Y128971D01*
X467107Y125029D01*
X465599Y121388D01*
X462812Y118601D01*
X459171Y117093D01*
X455229Y117093D01*
G37*
%LPD*%
%LPC*%
G36*
X569529Y117093D02*
X569529Y117093D01*
X565888Y118601D01*
X563101Y121388D01*
X561593Y125029D01*
X561593Y128971D01*
X563101Y132612D01*
X565888Y135399D01*
X569529Y136907D01*
X573471Y136907D01*
X577112Y135399D01*
X579899Y132612D01*
X581407Y128971D01*
X581407Y125029D01*
X579899Y121388D01*
X577112Y118601D01*
X573471Y117093D01*
X569529Y117093D01*
G37*
%LPD*%
%LPC*%
G36*
X493497Y587835D02*
X493497Y587835D01*
X490165Y589215D01*
X487615Y591765D01*
X486235Y595097D01*
X486235Y598703D01*
X487615Y602035D01*
X490165Y604585D01*
X493497Y605965D01*
X497103Y605965D01*
X500435Y604585D01*
X502985Y602035D01*
X504365Y598703D01*
X504365Y595097D01*
X502985Y591765D01*
X500435Y589215D01*
X497103Y587835D01*
X493497Y587835D01*
G37*
%LPD*%
%LPC*%
G36*
X493497Y537035D02*
X493497Y537035D01*
X490165Y538415D01*
X487615Y540965D01*
X486235Y544297D01*
X486235Y547903D01*
X487615Y551235D01*
X490165Y553785D01*
X493497Y555165D01*
X497103Y555165D01*
X500435Y553785D01*
X502985Y551235D01*
X504365Y547903D01*
X504365Y544297D01*
X502985Y540965D01*
X500435Y538415D01*
X497103Y537035D01*
X493497Y537035D01*
G37*
%LPD*%
%LPC*%
G36*
X645897Y537035D02*
X645897Y537035D01*
X642565Y538415D01*
X640015Y540965D01*
X638635Y544297D01*
X638635Y547903D01*
X640015Y551235D01*
X642565Y553785D01*
X645897Y555165D01*
X649503Y555165D01*
X652835Y553785D01*
X655385Y551235D01*
X656765Y547903D01*
X656765Y544297D01*
X655385Y540965D01*
X652835Y538415D01*
X649503Y537035D01*
X645897Y537035D01*
G37*
%LPD*%
%LPC*%
G36*
X645897Y511635D02*
X645897Y511635D01*
X642565Y513015D01*
X640015Y515565D01*
X638635Y518897D01*
X638635Y522503D01*
X640015Y525835D01*
X642565Y528385D01*
X645897Y529765D01*
X649503Y529765D01*
X652835Y528385D01*
X655385Y525835D01*
X656765Y522503D01*
X656765Y518897D01*
X655385Y515565D01*
X652835Y513015D01*
X649503Y511635D01*
X645897Y511635D01*
G37*
%LPD*%
%LPC*%
G36*
X493497Y511635D02*
X493497Y511635D01*
X490165Y513015D01*
X487615Y515565D01*
X486235Y518897D01*
X486235Y522503D01*
X487615Y525835D01*
X490165Y528385D01*
X493497Y529765D01*
X497103Y529765D01*
X500435Y528385D01*
X502985Y525835D01*
X504365Y522503D01*
X504365Y518897D01*
X502985Y515565D01*
X500435Y513015D01*
X497103Y511635D01*
X493497Y511635D01*
G37*
%LPD*%
%LPC*%
G36*
X645897Y486235D02*
X645897Y486235D01*
X642565Y487615D01*
X640015Y490165D01*
X638635Y493497D01*
X638635Y497103D01*
X640015Y500435D01*
X642565Y502985D01*
X645897Y504365D01*
X649503Y504365D01*
X652835Y502985D01*
X655385Y500435D01*
X656765Y497103D01*
X656765Y493497D01*
X655385Y490165D01*
X652835Y487615D01*
X649503Y486235D01*
X645897Y486235D01*
G37*
%LPD*%
%LPC*%
G36*
X493497Y486235D02*
X493497Y486235D01*
X490165Y487615D01*
X487615Y490165D01*
X486235Y493497D01*
X486235Y497103D01*
X487615Y500435D01*
X490165Y502985D01*
X493497Y504365D01*
X497103Y504365D01*
X500435Y502985D01*
X502985Y500435D01*
X504365Y497103D01*
X504365Y493497D01*
X502985Y490165D01*
X500435Y487615D01*
X497103Y486235D01*
X493497Y486235D01*
G37*
%LPD*%
%LPC*%
G36*
X645897Y613235D02*
X645897Y613235D01*
X642565Y614615D01*
X640015Y617165D01*
X638635Y620497D01*
X638635Y624103D01*
X640015Y627435D01*
X642565Y629985D01*
X645897Y631365D01*
X649503Y631365D01*
X652835Y629985D01*
X655385Y627435D01*
X656765Y624103D01*
X656765Y620497D01*
X655385Y617165D01*
X652835Y614615D01*
X649503Y613235D01*
X645897Y613235D01*
G37*
%LPD*%
%LPC*%
G36*
X493497Y359235D02*
X493497Y359235D01*
X490165Y360615D01*
X487615Y363165D01*
X486235Y366497D01*
X486235Y370103D01*
X487615Y373435D01*
X490165Y375985D01*
X493497Y377365D01*
X497103Y377365D01*
X500435Y375985D01*
X502985Y373435D01*
X504365Y370103D01*
X504365Y366497D01*
X502985Y363165D01*
X500435Y360615D01*
X497103Y359235D01*
X493497Y359235D01*
G37*
%LPD*%
%LPC*%
G36*
X645897Y333835D02*
X645897Y333835D01*
X642565Y335215D01*
X640015Y337765D01*
X638635Y341097D01*
X638635Y344703D01*
X640015Y348035D01*
X642565Y350585D01*
X645897Y351965D01*
X649503Y351965D01*
X652835Y350585D01*
X655385Y348035D01*
X656765Y344703D01*
X656765Y341097D01*
X655385Y337765D01*
X652835Y335215D01*
X649503Y333835D01*
X645897Y333835D01*
G37*
%LPD*%
%LPC*%
G36*
X493497Y333835D02*
X493497Y333835D01*
X490165Y335215D01*
X487615Y337765D01*
X486235Y341097D01*
X486235Y344703D01*
X487615Y348035D01*
X490165Y350585D01*
X493497Y351965D01*
X497103Y351965D01*
X500435Y350585D01*
X502985Y348035D01*
X504365Y344703D01*
X504365Y341097D01*
X502985Y337765D01*
X500435Y335215D01*
X497103Y333835D01*
X493497Y333835D01*
G37*
%LPD*%
%LPC*%
G36*
X323028Y461835D02*
X323028Y461835D01*
X322135Y462728D01*
X322135Y477072D01*
X323028Y477965D01*
X337372Y477965D01*
X338265Y477072D01*
X338265Y462728D01*
X337372Y461835D01*
X323028Y461835D01*
G37*
%LPD*%
%LPC*%
G36*
X780228Y449135D02*
X780228Y449135D01*
X779335Y450028D01*
X779335Y464372D01*
X780228Y465265D01*
X794572Y465265D01*
X795465Y464372D01*
X795465Y450028D01*
X794572Y449135D01*
X780228Y449135D01*
G37*
%LPD*%
%LPC*%
G36*
X323028Y207835D02*
X323028Y207835D01*
X322135Y208728D01*
X322135Y223072D01*
X323028Y223965D01*
X337372Y223965D01*
X338265Y223072D01*
X338265Y208728D01*
X337372Y207835D01*
X323028Y207835D01*
G37*
%LPD*%
%LPC*%
G36*
X767528Y385635D02*
X767528Y385635D01*
X766635Y386528D01*
X766635Y400872D01*
X767528Y401765D01*
X781872Y401765D01*
X782765Y400872D01*
X782765Y386528D01*
X781872Y385635D01*
X767528Y385635D01*
G37*
%LPD*%
%LPC*%
G36*
X411928Y499935D02*
X411928Y499935D01*
X411035Y500828D01*
X411035Y515172D01*
X411928Y516065D01*
X426272Y516065D01*
X427165Y515172D01*
X427165Y500828D01*
X426272Y499935D01*
X411928Y499935D01*
G37*
%LPD*%
%LPC*%
G36*
X615128Y80835D02*
X615128Y80835D01*
X614235Y81728D01*
X614235Y96072D01*
X615128Y96965D01*
X629472Y96965D01*
X630365Y96072D01*
X630365Y81728D01*
X629472Y80835D01*
X615128Y80835D01*
G37*
%LPD*%
%LPC*%
G36*
X386528Y80835D02*
X386528Y80835D01*
X385635Y81728D01*
X385635Y96072D01*
X386528Y96965D01*
X400872Y96965D01*
X401765Y96072D01*
X401765Y81728D01*
X400872Y80835D01*
X386528Y80835D01*
G37*
%LPD*%
%LPC*%
G36*
X500828Y80835D02*
X500828Y80835D01*
X499935Y81728D01*
X499935Y96072D01*
X500828Y96965D01*
X515172Y96965D01*
X516065Y96072D01*
X516065Y81728D01*
X515172Y80835D01*
X500828Y80835D01*
G37*
%LPD*%
%LPC*%
G36*
X780228Y538035D02*
X780228Y538035D01*
X779335Y538928D01*
X779335Y553272D01*
X780228Y554165D01*
X794572Y554165D01*
X795465Y553272D01*
X795465Y538928D01*
X794572Y538035D01*
X780228Y538035D01*
G37*
%LPD*%
%LPC*%
G36*
X403033Y144271D02*
X403033Y144271D01*
X398271Y149033D01*
X398271Y155767D01*
X403033Y160529D01*
X409767Y160529D01*
X414529Y155767D01*
X414529Y149033D01*
X409767Y144271D01*
X403033Y144271D01*
G37*
%LPD*%
%LPC*%
G36*
X631633Y144271D02*
X631633Y144271D01*
X626871Y149033D01*
X626871Y155767D01*
X631633Y160529D01*
X638367Y160529D01*
X643129Y155767D01*
X643129Y149033D01*
X638367Y144271D01*
X631633Y144271D01*
G37*
%LPD*%
%LPC*%
G36*
X517333Y144271D02*
X517333Y144271D01*
X512571Y149033D01*
X512571Y155767D01*
X517333Y160529D01*
X524067Y160529D01*
X528829Y155767D01*
X528829Y149033D01*
X524067Y144271D01*
X517333Y144271D01*
G37*
%LPD*%
%LPC*%
G36*
X682433Y652271D02*
X682433Y652271D01*
X677671Y657033D01*
X677671Y663767D01*
X682433Y668529D01*
X689167Y668529D01*
X693929Y663767D01*
X693929Y657033D01*
X689167Y652271D01*
X682433Y652271D01*
G37*
%LPD*%
%LPC*%
G36*
X696883Y578611D02*
X696883Y578611D01*
X693895Y579849D01*
X691609Y582135D01*
X690371Y585123D01*
X690371Y588357D01*
X691609Y591345D01*
X693895Y593631D01*
X696883Y594869D01*
X700117Y594869D01*
X703105Y593631D01*
X705391Y591345D01*
X706629Y588357D01*
X706629Y585123D01*
X705391Y582135D01*
X703105Y579849D01*
X700117Y578611D01*
X696883Y578611D01*
G37*
%LPD*%
%LPC*%
G36*
X341296Y334835D02*
X341296Y334835D01*
X338332Y336063D01*
X336063Y338332D01*
X334835Y341296D01*
X334835Y344504D01*
X336063Y347468D01*
X338332Y349737D01*
X341296Y350965D01*
X344504Y350965D01*
X347468Y349737D01*
X349737Y347468D01*
X350965Y344504D01*
X350965Y341296D01*
X349737Y338332D01*
X347468Y336063D01*
X344504Y334835D01*
X341296Y334835D01*
G37*
%LPD*%
%LPC*%
G36*
X773096Y157035D02*
X773096Y157035D01*
X770132Y158263D01*
X767863Y160532D01*
X766635Y163496D01*
X766635Y166704D01*
X767863Y169668D01*
X770132Y171937D01*
X773096Y173165D01*
X776304Y173165D01*
X779268Y171937D01*
X781537Y169668D01*
X782765Y166704D01*
X782765Y163496D01*
X781537Y160532D01*
X779268Y158263D01*
X776304Y157035D01*
X773096Y157035D01*
G37*
%LPD*%
%LPC*%
G36*
X417496Y80835D02*
X417496Y80835D01*
X414532Y82063D01*
X412263Y84332D01*
X411035Y87296D01*
X411035Y90504D01*
X412263Y93468D01*
X414532Y95737D01*
X417496Y96965D01*
X420704Y96965D01*
X423668Y95737D01*
X425937Y93468D01*
X427165Y90504D01*
X427165Y87296D01*
X425937Y84332D01*
X423668Y82063D01*
X420704Y80835D01*
X417496Y80835D01*
G37*
%LPD*%
%LPC*%
G36*
X646096Y80835D02*
X646096Y80835D01*
X643132Y82063D01*
X640863Y84332D01*
X639635Y87296D01*
X639635Y90504D01*
X640863Y93468D01*
X643132Y95737D01*
X646096Y96965D01*
X649304Y96965D01*
X652268Y95737D01*
X654537Y93468D01*
X655765Y90504D01*
X655765Y87296D01*
X654537Y84332D01*
X652268Y82063D01*
X649304Y80835D01*
X646096Y80835D01*
G37*
%LPD*%
%LPC*%
G36*
X531796Y80835D02*
X531796Y80835D01*
X528832Y82063D01*
X526563Y84332D01*
X525335Y87296D01*
X525335Y90504D01*
X526563Y93468D01*
X528832Y95737D01*
X531796Y96965D01*
X535004Y96965D01*
X537968Y95737D01*
X540237Y93468D01*
X541465Y90504D01*
X541465Y87296D01*
X540237Y84332D01*
X537968Y82063D01*
X535004Y80835D01*
X531796Y80835D01*
G37*
%LPD*%
%LPC*%
G36*
X496823Y319023D02*
X496823Y319023D01*
X496823Y327465D01*
X497661Y327333D01*
X499170Y326842D01*
X500583Y326122D01*
X501867Y325189D01*
X502989Y324067D01*
X503922Y322783D01*
X504642Y321370D01*
X505133Y319861D01*
X505265Y319023D01*
X496823Y319023D01*
G37*
%LPD*%
%LPC*%
G36*
X649223Y369823D02*
X649223Y369823D01*
X649223Y378265D01*
X650061Y378133D01*
X651570Y377642D01*
X652983Y376922D01*
X654267Y375989D01*
X655389Y374867D01*
X656322Y373583D01*
X657042Y372170D01*
X657533Y370661D01*
X657665Y369823D01*
X649223Y369823D01*
G37*
%LPD*%
%LPC*%
G36*
X649223Y366777D02*
X649223Y366777D01*
X657665Y366777D01*
X657533Y365939D01*
X657042Y364430D01*
X656322Y363017D01*
X655389Y361733D01*
X654267Y360611D01*
X652983Y359678D01*
X651570Y358958D01*
X650061Y358467D01*
X649223Y358335D01*
X649223Y366777D01*
G37*
%LPD*%
%LPC*%
G36*
X637735Y369823D02*
X637735Y369823D01*
X637867Y370661D01*
X638358Y372170D01*
X639078Y373583D01*
X640011Y374867D01*
X641133Y375989D01*
X642417Y376922D01*
X643830Y377642D01*
X645339Y378133D01*
X646177Y378265D01*
X646177Y369823D01*
X637735Y369823D01*
G37*
%LPD*%
%LPC*%
G36*
X496823Y315977D02*
X496823Y315977D01*
X505265Y315977D01*
X505133Y315139D01*
X504642Y313630D01*
X503922Y312217D01*
X502989Y310933D01*
X501867Y309811D01*
X500583Y308878D01*
X499170Y308158D01*
X497661Y307667D01*
X496823Y307535D01*
X496823Y315977D01*
G37*
%LPD*%
%LPC*%
G36*
X485335Y319023D02*
X485335Y319023D01*
X485467Y319861D01*
X485958Y321370D01*
X486678Y322783D01*
X487611Y324067D01*
X488733Y325189D01*
X490017Y326122D01*
X491430Y326842D01*
X492939Y327333D01*
X493777Y327465D01*
X493777Y319023D01*
X485335Y319023D01*
G37*
%LPD*%
%LPC*%
G36*
X645339Y358467D02*
X645339Y358467D01*
X643830Y358958D01*
X642417Y359678D01*
X641133Y360611D01*
X640011Y361733D01*
X639078Y363017D01*
X638358Y364430D01*
X637867Y365939D01*
X637735Y366777D01*
X646177Y366777D01*
X646177Y358335D01*
X645339Y358467D01*
G37*
%LPD*%
%LPC*%
G36*
X492939Y307667D02*
X492939Y307667D01*
X491430Y308158D01*
X490017Y308878D01*
X488733Y309811D01*
X487611Y310933D01*
X486678Y312217D01*
X485958Y313630D01*
X485467Y315139D01*
X485335Y315977D01*
X493777Y315977D01*
X493777Y307535D01*
X492939Y307667D01*
G37*
%LPD*%
%LPC*%
G36*
X712723Y661923D02*
X712723Y661923D01*
X712723Y669545D01*
X714988Y669545D01*
X720345Y664188D01*
X720345Y661923D01*
X712723Y661923D01*
G37*
%LPD*%
%LPC*%
G36*
X700023Y608583D02*
X700023Y608583D01*
X700023Y616205D01*
X702288Y616205D01*
X707645Y610848D01*
X707645Y608583D01*
X700023Y608583D01*
G37*
%LPD*%
%LPC*%
G36*
X702055Y661923D02*
X702055Y661923D01*
X702055Y664188D01*
X707412Y669545D01*
X709677Y669545D01*
X709677Y661923D01*
X702055Y661923D01*
G37*
%LPD*%
%LPC*%
G36*
X689355Y608583D02*
X689355Y608583D01*
X689355Y610848D01*
X694712Y616205D01*
X696977Y616205D01*
X696977Y608583D01*
X689355Y608583D01*
G37*
%LPD*%
%LPC*%
G36*
X700023Y597915D02*
X700023Y597915D01*
X700023Y605537D01*
X707645Y605537D01*
X707645Y603272D01*
X702288Y597915D01*
X700023Y597915D01*
G37*
%LPD*%
%LPC*%
G36*
X712723Y651255D02*
X712723Y651255D01*
X712723Y658877D01*
X720345Y658877D01*
X720345Y656612D01*
X714988Y651255D01*
X712723Y651255D01*
G37*
%LPD*%
%LPC*%
G36*
X694712Y597915D02*
X694712Y597915D01*
X689355Y603272D01*
X689355Y605537D01*
X696977Y605537D01*
X696977Y597915D01*
X694712Y597915D01*
G37*
%LPD*%
%LPC*%
G36*
X707412Y651255D02*
X707412Y651255D01*
X702055Y656612D01*
X702055Y658877D01*
X709677Y658877D01*
X709677Y651255D01*
X707412Y651255D01*
G37*
%LPD*%
%LPC*%
G36*
X585723Y509523D02*
X585723Y509523D01*
X585723Y517211D01*
X586922Y516972D01*
X588620Y516269D01*
X590148Y515248D01*
X591448Y513948D01*
X592469Y512420D01*
X593172Y510722D01*
X593411Y509523D01*
X585723Y509523D01*
G37*
%LPD*%
%LPC*%
G36*
X585723Y433323D02*
X585723Y433323D01*
X585723Y441011D01*
X586922Y440772D01*
X588620Y440069D01*
X590148Y439048D01*
X591448Y437748D01*
X592469Y436220D01*
X593172Y434522D01*
X593411Y433323D01*
X585723Y433323D01*
G37*
%LPD*%
%LPC*%
G36*
X585723Y649223D02*
X585723Y649223D01*
X585723Y656911D01*
X586922Y656672D01*
X588620Y655969D01*
X590148Y654948D01*
X591448Y653648D01*
X592469Y652120D01*
X593172Y650422D01*
X593411Y649223D01*
X585723Y649223D01*
G37*
%LPD*%
%LPC*%
G36*
X585723Y573023D02*
X585723Y573023D01*
X585723Y580711D01*
X586922Y580472D01*
X588620Y579769D01*
X590148Y578748D01*
X591448Y577448D01*
X592469Y575920D01*
X593172Y574222D01*
X593411Y573023D01*
X585723Y573023D01*
G37*
%LPD*%
%LPC*%
G36*
X585723Y357123D02*
X585723Y357123D01*
X585723Y364811D01*
X586922Y364572D01*
X588620Y363869D01*
X590148Y362848D01*
X591448Y361548D01*
X592469Y360020D01*
X593172Y358322D01*
X593411Y357123D01*
X585723Y357123D01*
G37*
%LPD*%
%LPC*%
G36*
X585723Y280923D02*
X585723Y280923D01*
X585723Y288611D01*
X586922Y288372D01*
X588620Y287669D01*
X590148Y286648D01*
X591448Y285348D01*
X592469Y283820D01*
X593172Y282122D01*
X593411Y280923D01*
X585723Y280923D01*
G37*
%LPD*%
%LPC*%
G36*
X585723Y430277D02*
X585723Y430277D01*
X593411Y430277D01*
X593172Y429078D01*
X592469Y427380D01*
X591448Y425852D01*
X590148Y424552D01*
X588620Y423531D01*
X586922Y422828D01*
X585723Y422589D01*
X585723Y430277D01*
G37*
%LPD*%
%LPC*%
G36*
X585723Y646177D02*
X585723Y646177D01*
X593411Y646177D01*
X593172Y644978D01*
X592469Y643280D01*
X591448Y641752D01*
X590148Y640452D01*
X588620Y639431D01*
X586922Y638728D01*
X585723Y638489D01*
X585723Y646177D01*
G37*
%LPD*%
%LPC*%
G36*
X574989Y357123D02*
X574989Y357123D01*
X575228Y358322D01*
X575931Y360020D01*
X576952Y361548D01*
X578252Y362848D01*
X579780Y363869D01*
X581478Y364572D01*
X582677Y364811D01*
X582677Y357123D01*
X574989Y357123D01*
G37*
%LPD*%
%LPC*%
G36*
X574989Y649223D02*
X574989Y649223D01*
X575228Y650422D01*
X575931Y652120D01*
X576952Y653648D01*
X578252Y654948D01*
X579780Y655969D01*
X581478Y656672D01*
X582677Y656911D01*
X582677Y649223D01*
X574989Y649223D01*
G37*
%LPD*%
%LPC*%
G36*
X585723Y354077D02*
X585723Y354077D01*
X593411Y354077D01*
X593172Y352878D01*
X592469Y351180D01*
X591448Y349652D01*
X590148Y348352D01*
X588620Y347331D01*
X586922Y346628D01*
X585723Y346389D01*
X585723Y354077D01*
G37*
%LPD*%
%LPC*%
G36*
X585723Y277877D02*
X585723Y277877D01*
X593411Y277877D01*
X593172Y276678D01*
X592469Y274980D01*
X591448Y273452D01*
X590148Y272152D01*
X588620Y271131D01*
X586922Y270428D01*
X585723Y270189D01*
X585723Y277877D01*
G37*
%LPD*%
%LPC*%
G36*
X574989Y573023D02*
X574989Y573023D01*
X575228Y574222D01*
X575931Y575920D01*
X576952Y577448D01*
X578252Y578748D01*
X579780Y579769D01*
X581478Y580472D01*
X582677Y580711D01*
X582677Y573023D01*
X574989Y573023D01*
G37*
%LPD*%
%LPC*%
G36*
X574989Y509523D02*
X574989Y509523D01*
X575228Y510722D01*
X575931Y512420D01*
X576952Y513948D01*
X578252Y515248D01*
X579780Y516269D01*
X581478Y516972D01*
X582677Y517211D01*
X582677Y509523D01*
X574989Y509523D01*
G37*
%LPD*%
%LPC*%
G36*
X574989Y280923D02*
X574989Y280923D01*
X575228Y282122D01*
X575931Y283820D01*
X576952Y285348D01*
X578252Y286648D01*
X579780Y287669D01*
X581478Y288372D01*
X582677Y288611D01*
X582677Y280923D01*
X574989Y280923D01*
G37*
%LPD*%
%LPC*%
G36*
X574989Y433323D02*
X574989Y433323D01*
X575228Y434522D01*
X575931Y436220D01*
X576952Y437748D01*
X578252Y439048D01*
X579780Y440069D01*
X581478Y440772D01*
X582677Y441011D01*
X582677Y433323D01*
X574989Y433323D01*
G37*
%LPD*%
%LPC*%
G36*
X585723Y569977D02*
X585723Y569977D01*
X593411Y569977D01*
X593172Y568778D01*
X592469Y567080D01*
X591448Y565552D01*
X590148Y564252D01*
X588620Y563231D01*
X586922Y562528D01*
X585723Y562289D01*
X585723Y569977D01*
G37*
%LPD*%
%LPC*%
G36*
X585723Y506477D02*
X585723Y506477D01*
X593411Y506477D01*
X593172Y505278D01*
X592469Y503580D01*
X591448Y502052D01*
X590148Y500752D01*
X588620Y499731D01*
X586922Y499028D01*
X585723Y498789D01*
X585723Y506477D01*
G37*
%LPD*%
%LPC*%
G36*
X581478Y270428D02*
X581478Y270428D01*
X579780Y271131D01*
X578252Y272152D01*
X576952Y273452D01*
X575931Y274980D01*
X575228Y276678D01*
X574989Y277877D01*
X582677Y277877D01*
X582677Y270189D01*
X581478Y270428D01*
G37*
%LPD*%
%LPC*%
G36*
X581478Y422828D02*
X581478Y422828D01*
X579780Y423531D01*
X578252Y424552D01*
X576952Y425852D01*
X575931Y427380D01*
X575228Y429078D01*
X574989Y430277D01*
X582677Y430277D01*
X582677Y422589D01*
X581478Y422828D01*
G37*
%LPD*%
%LPC*%
G36*
X581478Y638728D02*
X581478Y638728D01*
X579780Y639431D01*
X578252Y640452D01*
X576952Y641752D01*
X575931Y643280D01*
X575228Y644978D01*
X574989Y646177D01*
X582677Y646177D01*
X582677Y638489D01*
X581478Y638728D01*
G37*
%LPD*%
%LPC*%
G36*
X581478Y562528D02*
X581478Y562528D01*
X579780Y563231D01*
X578252Y564252D01*
X576952Y565552D01*
X575931Y567080D01*
X575228Y568778D01*
X574989Y569977D01*
X582677Y569977D01*
X582677Y562289D01*
X581478Y562528D01*
G37*
%LPD*%
%LPC*%
G36*
X581478Y499028D02*
X581478Y499028D01*
X579780Y499731D01*
X578252Y500752D01*
X576952Y502052D01*
X575931Y503580D01*
X575228Y505278D01*
X574989Y506477D01*
X582677Y506477D01*
X582677Y498789D01*
X581478Y499028D01*
G37*
%LPD*%
%LPC*%
G36*
X581478Y346628D02*
X581478Y346628D01*
X579780Y347331D01*
X578252Y348352D01*
X576952Y349652D01*
X575931Y351180D01*
X575228Y352878D01*
X574989Y354077D01*
X582677Y354077D01*
X582677Y346389D01*
X581478Y346628D01*
G37*
%LPD*%
%LPC*%
G36*
X420623Y598423D02*
X420623Y598423D01*
X420623Y605856D01*
X421749Y605632D01*
X423401Y604947D01*
X424889Y603953D01*
X426153Y602689D01*
X427147Y601201D01*
X427832Y599549D01*
X428056Y598423D01*
X420623Y598423D01*
G37*
%LPD*%
%LPC*%
G36*
X331723Y560323D02*
X331723Y560323D01*
X331723Y567756D01*
X332849Y567532D01*
X334501Y566847D01*
X335989Y565853D01*
X337253Y564589D01*
X338247Y563101D01*
X338932Y561449D01*
X339156Y560323D01*
X331723Y560323D01*
G37*
%LPD*%
%LPC*%
G36*
X331723Y166623D02*
X331723Y166623D01*
X331723Y174056D01*
X332849Y173832D01*
X334501Y173147D01*
X335989Y172153D01*
X337253Y170889D01*
X338247Y169401D01*
X338932Y167749D01*
X339156Y166623D01*
X331723Y166623D01*
G37*
%LPD*%
%LPC*%
G36*
X344423Y369823D02*
X344423Y369823D01*
X344423Y377256D01*
X345549Y377032D01*
X347201Y376347D01*
X348689Y375353D01*
X349953Y374089D01*
X350947Y372601D01*
X351632Y370949D01*
X351856Y369823D01*
X344423Y369823D01*
G37*
%LPD*%
%LPC*%
G36*
X788923Y484123D02*
X788923Y484123D01*
X788923Y491556D01*
X790049Y491332D01*
X791701Y490647D01*
X793189Y489653D01*
X794453Y488389D01*
X795447Y486901D01*
X796132Y485249D01*
X796356Y484123D01*
X788923Y484123D01*
G37*
%LPD*%
%LPC*%
G36*
X420623Y484123D02*
X420623Y484123D01*
X420623Y491556D01*
X421749Y491332D01*
X423401Y490647D01*
X424889Y489653D01*
X426153Y488389D01*
X427147Y486901D01*
X427832Y485249D01*
X428056Y484123D01*
X420623Y484123D01*
G37*
%LPD*%
%LPC*%
G36*
X788923Y573023D02*
X788923Y573023D01*
X788923Y580456D01*
X790049Y580232D01*
X791701Y579547D01*
X793189Y578553D01*
X794453Y577289D01*
X795447Y575801D01*
X796132Y574149D01*
X796356Y573023D01*
X788923Y573023D01*
G37*
%LPD*%
%LPC*%
G36*
X331723Y446023D02*
X331723Y446023D01*
X331723Y453456D01*
X332849Y453232D01*
X334501Y452547D01*
X335989Y451553D01*
X337253Y450289D01*
X338247Y448801D01*
X338932Y447149D01*
X339156Y446023D01*
X331723Y446023D01*
G37*
%LPD*%
%LPC*%
G36*
X331723Y557277D02*
X331723Y557277D01*
X339156Y557277D01*
X338932Y556151D01*
X338247Y554499D01*
X337253Y553011D01*
X335989Y551747D01*
X334501Y550753D01*
X332849Y550068D01*
X331723Y549844D01*
X331723Y557277D01*
G37*
%LPD*%
%LPC*%
G36*
X344423Y366777D02*
X344423Y366777D01*
X351856Y366777D01*
X351632Y365651D01*
X350947Y363999D01*
X349953Y362511D01*
X348689Y361247D01*
X347201Y360253D01*
X345549Y359568D01*
X344423Y359344D01*
X344423Y366777D01*
G37*
%LPD*%
%LPC*%
G36*
X321244Y560323D02*
X321244Y560323D01*
X321468Y561449D01*
X322153Y563101D01*
X323147Y564589D01*
X324411Y565853D01*
X325899Y566847D01*
X327551Y567532D01*
X328677Y567756D01*
X328677Y560323D01*
X321244Y560323D01*
G37*
%LPD*%
%LPC*%
G36*
X788923Y569977D02*
X788923Y569977D01*
X796356Y569977D01*
X796132Y568851D01*
X795447Y567199D01*
X794453Y565711D01*
X793189Y564447D01*
X791701Y563453D01*
X790049Y562768D01*
X788923Y562544D01*
X788923Y569977D01*
G37*
%LPD*%
%LPC*%
G36*
X410144Y484123D02*
X410144Y484123D01*
X410368Y485249D01*
X411053Y486901D01*
X412047Y488389D01*
X413311Y489653D01*
X414799Y490647D01*
X416451Y491332D01*
X417577Y491556D01*
X417577Y484123D01*
X410144Y484123D01*
G37*
%LPD*%
%LPC*%
G36*
X778444Y484123D02*
X778444Y484123D01*
X778668Y485249D01*
X779353Y486901D01*
X780347Y488389D01*
X781611Y489653D01*
X783099Y490647D01*
X784751Y491332D01*
X785877Y491556D01*
X785877Y484123D01*
X778444Y484123D01*
G37*
%LPD*%
%LPC*%
G36*
X420623Y481077D02*
X420623Y481077D01*
X428056Y481077D01*
X427832Y479951D01*
X427147Y478299D01*
X426153Y476811D01*
X424889Y475547D01*
X423401Y474553D01*
X421749Y473868D01*
X420623Y473644D01*
X420623Y481077D01*
G37*
%LPD*%
%LPC*%
G36*
X788923Y481077D02*
X788923Y481077D01*
X796356Y481077D01*
X796132Y479951D01*
X795447Y478299D01*
X794453Y476811D01*
X793189Y475547D01*
X791701Y474553D01*
X790049Y473868D01*
X788923Y473644D01*
X788923Y481077D01*
G37*
%LPD*%
%LPC*%
G36*
X778444Y573023D02*
X778444Y573023D01*
X778668Y574149D01*
X779353Y575801D01*
X780347Y577289D01*
X781611Y578553D01*
X783099Y579547D01*
X784751Y580232D01*
X785877Y580456D01*
X785877Y573023D01*
X778444Y573023D01*
G37*
%LPD*%
%LPC*%
G36*
X321244Y446023D02*
X321244Y446023D01*
X321468Y447149D01*
X322153Y448801D01*
X323147Y450289D01*
X324411Y451553D01*
X325899Y452547D01*
X327551Y453232D01*
X328677Y453456D01*
X328677Y446023D01*
X321244Y446023D01*
G37*
%LPD*%
%LPC*%
G36*
X331723Y442977D02*
X331723Y442977D01*
X339156Y442977D01*
X338932Y441851D01*
X338247Y440199D01*
X337253Y438711D01*
X335989Y437447D01*
X334501Y436453D01*
X332849Y435768D01*
X331723Y435544D01*
X331723Y442977D01*
G37*
%LPD*%
%LPC*%
G36*
X420623Y595377D02*
X420623Y595377D01*
X428056Y595377D01*
X427832Y594251D01*
X427147Y592599D01*
X426153Y591111D01*
X424889Y589847D01*
X423401Y588853D01*
X421749Y588168D01*
X420623Y587944D01*
X420623Y595377D01*
G37*
%LPD*%
%LPC*%
G36*
X331723Y163577D02*
X331723Y163577D01*
X339156Y163577D01*
X338932Y162451D01*
X338247Y160799D01*
X337253Y159311D01*
X335989Y158047D01*
X334501Y157053D01*
X332849Y156368D01*
X331723Y156144D01*
X331723Y163577D01*
G37*
%LPD*%
%LPC*%
G36*
X333944Y369823D02*
X333944Y369823D01*
X334168Y370949D01*
X334853Y372601D01*
X335847Y374089D01*
X337111Y375353D01*
X338599Y376347D01*
X340251Y377032D01*
X341377Y377256D01*
X341377Y369823D01*
X333944Y369823D01*
G37*
%LPD*%
%LPC*%
G36*
X321244Y166623D02*
X321244Y166623D01*
X321468Y167749D01*
X322153Y169401D01*
X323147Y170889D01*
X324411Y172153D01*
X325899Y173147D01*
X327551Y173832D01*
X328677Y174056D01*
X328677Y166623D01*
X321244Y166623D01*
G37*
%LPD*%
%LPC*%
G36*
X410144Y598423D02*
X410144Y598423D01*
X410368Y599549D01*
X411053Y601201D01*
X412047Y602689D01*
X413311Y603953D01*
X414799Y604947D01*
X416451Y605632D01*
X417577Y605856D01*
X417577Y598423D01*
X410144Y598423D01*
G37*
%LPD*%
%LPC*%
G36*
X327551Y156368D02*
X327551Y156368D01*
X325899Y157053D01*
X324411Y158047D01*
X323147Y159311D01*
X322153Y160799D01*
X321468Y162451D01*
X321244Y163577D01*
X328677Y163577D01*
X328677Y156144D01*
X327551Y156368D01*
G37*
%LPD*%
%LPC*%
G36*
X327551Y550068D02*
X327551Y550068D01*
X325899Y550753D01*
X324411Y551747D01*
X323147Y553011D01*
X322153Y554499D01*
X321468Y556151D01*
X321244Y557277D01*
X328677Y557277D01*
X328677Y549844D01*
X327551Y550068D01*
G37*
%LPD*%
%LPC*%
G36*
X784751Y562768D02*
X784751Y562768D01*
X783099Y563453D01*
X781611Y564447D01*
X780347Y565711D01*
X779353Y567199D01*
X778668Y568851D01*
X778444Y569977D01*
X785877Y569977D01*
X785877Y562544D01*
X784751Y562768D01*
G37*
%LPD*%
%LPC*%
G36*
X340251Y359568D02*
X340251Y359568D01*
X338599Y360253D01*
X337111Y361247D01*
X335847Y362511D01*
X334853Y363999D01*
X334168Y365651D01*
X333944Y366777D01*
X341377Y366777D01*
X341377Y359344D01*
X340251Y359568D01*
G37*
%LPD*%
%LPC*%
G36*
X784751Y473868D02*
X784751Y473868D01*
X783099Y474553D01*
X781611Y475547D01*
X780347Y476811D01*
X779353Y478299D01*
X778668Y479951D01*
X778444Y481077D01*
X785877Y481077D01*
X785877Y473644D01*
X784751Y473868D01*
G37*
%LPD*%
%LPC*%
G36*
X416451Y473868D02*
X416451Y473868D01*
X414799Y474553D01*
X413311Y475547D01*
X412047Y476811D01*
X411053Y478299D01*
X410368Y479951D01*
X410144Y481077D01*
X417577Y481077D01*
X417577Y473644D01*
X416451Y473868D01*
G37*
%LPD*%
%LPC*%
G36*
X416451Y588168D02*
X416451Y588168D01*
X414799Y588853D01*
X413311Y589847D01*
X412047Y591111D01*
X411053Y592599D01*
X410368Y594251D01*
X410144Y595377D01*
X417577Y595377D01*
X417577Y587944D01*
X416451Y588168D01*
G37*
%LPD*%
%LPC*%
G36*
X327551Y435768D02*
X327551Y435768D01*
X325899Y436453D01*
X324411Y437447D01*
X323147Y438711D01*
X322153Y440199D01*
X321468Y441851D01*
X321244Y442977D01*
X328677Y442977D01*
X328677Y435544D01*
X327551Y435768D01*
G37*
%LPD*%
%LPC*%
G36*
X330199Y558799D02*
X330199Y558799D01*
X330199Y558801D01*
X330201Y558801D01*
X330201Y558799D01*
X330199Y558799D01*
G37*
%LPD*%
%LPC*%
G36*
X584199Y279399D02*
X584199Y279399D01*
X584199Y279401D01*
X584201Y279401D01*
X584201Y279399D01*
X584199Y279399D01*
G37*
%LPD*%
%LPC*%
G36*
X584199Y507999D02*
X584199Y507999D01*
X584199Y508001D01*
X584201Y508001D01*
X584201Y507999D01*
X584199Y507999D01*
G37*
%LPD*%
%LPC*%
G36*
X787399Y482599D02*
X787399Y482599D01*
X787399Y482601D01*
X787401Y482601D01*
X787401Y482599D01*
X787399Y482599D01*
G37*
%LPD*%
%LPC*%
G36*
X419099Y482599D02*
X419099Y482599D01*
X419099Y482601D01*
X419101Y482601D01*
X419101Y482599D01*
X419099Y482599D01*
G37*
%LPD*%
%LPC*%
G36*
X711199Y660399D02*
X711199Y660399D01*
X711199Y660401D01*
X711201Y660401D01*
X711201Y660399D01*
X711199Y660399D01*
G37*
%LPD*%
%LPC*%
G36*
X787399Y571499D02*
X787399Y571499D01*
X787399Y571501D01*
X787401Y571501D01*
X787401Y571499D01*
X787399Y571499D01*
G37*
%LPD*%
%LPC*%
G36*
X584199Y571499D02*
X584199Y571499D01*
X584199Y571501D01*
X584201Y571501D01*
X584201Y571499D01*
X584199Y571499D01*
G37*
%LPD*%
%LPC*%
G36*
X330199Y444499D02*
X330199Y444499D01*
X330199Y444501D01*
X330201Y444501D01*
X330201Y444499D01*
X330199Y444499D01*
G37*
%LPD*%
%LPC*%
G36*
X584199Y431799D02*
X584199Y431799D01*
X584199Y431801D01*
X584201Y431801D01*
X584201Y431799D01*
X584199Y431799D01*
G37*
%LPD*%
%LPC*%
G36*
X330199Y165099D02*
X330199Y165099D01*
X330199Y165101D01*
X330201Y165101D01*
X330201Y165099D01*
X330199Y165099D01*
G37*
%LPD*%
%LPC*%
G36*
X419099Y596899D02*
X419099Y596899D01*
X419099Y596901D01*
X419101Y596901D01*
X419101Y596899D01*
X419099Y596899D01*
G37*
%LPD*%
%LPC*%
G36*
X342899Y368299D02*
X342899Y368299D01*
X342899Y368301D01*
X342901Y368301D01*
X342901Y368299D01*
X342899Y368299D01*
G37*
%LPD*%
%LPC*%
G36*
X647699Y368299D02*
X647699Y368299D01*
X647699Y368301D01*
X647701Y368301D01*
X647701Y368299D01*
X647699Y368299D01*
G37*
%LPD*%
%LPC*%
G36*
X584199Y355599D02*
X584199Y355599D01*
X584199Y355601D01*
X584201Y355601D01*
X584201Y355599D01*
X584199Y355599D01*
G37*
%LPD*%
%LPC*%
G36*
X584199Y647699D02*
X584199Y647699D01*
X584199Y647701D01*
X584201Y647701D01*
X584201Y647699D01*
X584199Y647699D01*
G37*
%LPD*%
%LPC*%
G36*
X698499Y607059D02*
X698499Y607059D01*
X698499Y607061D01*
X698501Y607061D01*
X698501Y607059D01*
X698499Y607059D01*
G37*
%LPD*%
%LPC*%
G36*
X495299Y317499D02*
X495299Y317499D01*
X495299Y317501D01*
X495301Y317501D01*
X495301Y317499D01*
X495299Y317499D01*
G37*
%LPD*%
D10*
X698500Y607060D03*
D11*
X698500Y586740D03*
D12*
X685800Y660400D03*
X711200Y660400D03*
D13*
X685800Y533400D03*
X685800Y431800D03*
X711200Y381000D03*
X711200Y279400D03*
D14*
X647700Y292100D03*
D15*
X647700Y317500D03*
X647700Y342900D03*
X647700Y368300D03*
X647700Y393700D03*
X647700Y419100D03*
X647700Y444500D03*
X647700Y469900D03*
X647700Y495300D03*
X647700Y520700D03*
X647700Y546100D03*
X647700Y571500D03*
X495300Y292100D03*
X495300Y317500D03*
X495300Y342900D03*
X495300Y368300D03*
X495300Y393700D03*
X495300Y419100D03*
X495300Y469900D03*
X495300Y495300D03*
X495300Y546100D03*
X495300Y571500D03*
X495300Y520700D03*
X495300Y444500D03*
X647700Y596900D03*
X647700Y622300D03*
X647700Y647700D03*
X495300Y596900D03*
X495300Y622300D03*
X495300Y647700D03*
D16*
X787400Y546100D03*
D17*
X787400Y571500D03*
D16*
X622300Y88900D03*
D17*
X647700Y88900D03*
D16*
X508000Y88900D03*
D17*
X533400Y88900D03*
D16*
X774700Y393700D03*
D17*
X774700Y368300D03*
X774700Y342900D03*
X774700Y317500D03*
X774700Y292100D03*
X774700Y266700D03*
X774700Y241300D03*
X774700Y215900D03*
X774700Y190500D03*
X774700Y165100D03*
D16*
X787400Y457200D03*
D17*
X787400Y482600D03*
D16*
X330200Y469900D03*
D17*
X330200Y444500D03*
D18*
X558800Y431800D03*
D19*
X584200Y431800D03*
X584200Y508000D03*
X558800Y508000D03*
D18*
X558800Y279400D03*
D19*
X584200Y279400D03*
X584200Y355600D03*
X558800Y355600D03*
D16*
X342900Y292100D03*
D17*
X342900Y317500D03*
X342900Y342900D03*
X342900Y368300D03*
D10*
X635000Y152400D03*
X635000Y228600D03*
X520700Y152400D03*
X520700Y228600D03*
D13*
X685800Y228600D03*
X685800Y127000D03*
X571500Y228600D03*
X571500Y127000D03*
D16*
X419100Y508000D03*
D17*
X419100Y482600D03*
D16*
X419100Y622300D03*
D17*
X419100Y596900D03*
D16*
X330200Y215900D03*
D17*
X330200Y190500D03*
X330200Y165100D03*
D18*
X558800Y571500D03*
D19*
X584200Y571500D03*
X584200Y647700D03*
X558800Y647700D03*
D10*
X406400Y152400D03*
X406400Y228600D03*
D13*
X457200Y228600D03*
X457200Y127000D03*
D16*
X393700Y88900D03*
D17*
X419100Y88900D03*
D16*
X330200Y584200D03*
D17*
X330200Y558800D03*
D20*
X469900Y469900D02*
X495300Y469900D01*
X469900Y469900D02*
X457200Y457200D01*
X431800Y457200D01*
X419100Y444500D01*
X419100Y393700D01*
X342900Y317500D01*
X342900Y292100D02*
X431800Y381000D01*
X431800Y431800D01*
X444500Y444500D01*
X495300Y444500D01*
X647700Y419100D02*
X660400Y419100D01*
X685800Y393700D01*
X685800Y355600D02*
X774700Y266700D01*
X685800Y355600D02*
X685800Y393700D01*
X774700Y266700D02*
X774700Y241300D01*
X660400Y393700D02*
X647700Y393700D01*
X660400Y393700D02*
X673100Y381000D01*
X673100Y342900D02*
X749300Y266700D01*
X749300Y241300D01*
X774700Y215900D01*
X673100Y342900D02*
X673100Y381000D01*
X774700Y215900D02*
X774700Y190500D01*
X647700Y292100D02*
X635000Y292100D01*
X609600Y317500D01*
X558800Y317500D02*
X533400Y342900D01*
X533400Y381000D01*
X546100Y393700D01*
X596900Y393700D01*
X609600Y406400D01*
X609600Y469900D01*
X596900Y482600D01*
X571500Y482600D01*
X558800Y495300D01*
X558800Y508000D01*
X558800Y317500D02*
X609600Y317500D01*
X635000Y317500D02*
X647700Y317500D01*
X635000Y317500D02*
X622300Y330200D01*
X584200Y330200D01*
X558800Y355600D01*
X520700Y241300D02*
X520700Y228600D01*
X520700Y241300D02*
X558800Y279400D01*
X546100Y304800D02*
X520700Y330200D01*
X520700Y381000D01*
X558800Y419100D02*
X558800Y431800D01*
X558800Y419100D02*
X520700Y381000D01*
X609600Y254000D02*
X635000Y228600D01*
X596900Y304800D02*
X546100Y304800D01*
X596900Y304800D02*
X596900Y304800D01*
X609600Y292100D01*
X609600Y254000D01*
X419100Y622300D02*
X431800Y635000D01*
X520700Y635000D01*
X533400Y647700D01*
X533400Y673100D01*
X609600Y673100D01*
X609600Y609600D01*
X622300Y596900D01*
X647700Y596900D01*
X355600Y215900D02*
X330200Y190500D01*
X355600Y215900D02*
X368300Y215900D01*
X381000Y228600D01*
X381000Y304800D02*
X444500Y368300D01*
X444500Y419100D01*
X457200Y431800D01*
X508000Y431800D01*
X520700Y444500D01*
X520700Y558800D01*
X508000Y571500D01*
X495300Y571500D01*
X381000Y304800D02*
X381000Y228600D01*
X647700Y444500D02*
X660400Y457200D01*
X711200Y444500D02*
X711200Y406400D01*
X698500Y457200D02*
X660400Y457200D01*
X698500Y457200D02*
X711200Y444500D01*
X711200Y406400D02*
X762000Y355600D01*
X762000Y330200D01*
X774700Y317500D01*
X774700Y292100D01*
X711200Y469900D02*
X647700Y469900D01*
X711200Y469900D02*
X723900Y457200D01*
X723900Y419100D01*
X774700Y368300D01*
X774700Y342900D01*
X558800Y622300D02*
X558800Y647700D01*
X596900Y596900D02*
X622300Y571500D01*
X647700Y571500D01*
X596900Y596900D02*
X584200Y596900D01*
X558800Y622300D01*
X406400Y304800D02*
X406400Y228600D01*
X406400Y304800D02*
X457200Y355600D01*
X457200Y393700D01*
X469900Y406400D01*
X520700Y406400D01*
X533400Y419100D01*
X533400Y546100D02*
X558800Y571500D01*
X533400Y546100D02*
X533400Y419100D01*
X342900Y596900D02*
X330200Y584200D01*
X342900Y596900D02*
X342900Y609600D01*
X368300Y635000D01*
X368300Y660400D01*
X480880Y660400D01*
X487357Y653923D01*
X489077Y653923D01*
X495300Y647700D01*
M02*
