G04 EAGLE Gerber RS-274X export*
G75*
%MOMM*%
%FSLAX34Y34*%
%LPD*%
%IN*%
%IPPOS*%
%AMOC8*
5,1,8,0,0,1.08239X$1,22.5*%
G01*
%ADD10C,0.254000*%


D10*
X279400Y38100D02*
X834900Y38100D01*
X834900Y698400D01*
X279400Y698400D01*
X279400Y38100D01*
X334007Y659860D02*
X333937Y658781D01*
X333796Y657710D01*
X333585Y656650D01*
X333305Y655606D01*
X332958Y654582D01*
X332544Y653584D01*
X332066Y652614D01*
X331526Y651678D01*
X330925Y650780D01*
X330267Y649922D01*
X329555Y649110D01*
X328790Y648345D01*
X327978Y647633D01*
X327120Y646975D01*
X326222Y646374D01*
X325286Y645834D01*
X324316Y645356D01*
X323318Y644942D01*
X322294Y644595D01*
X321250Y644315D01*
X320190Y644104D01*
X319119Y643963D01*
X318040Y643893D01*
X316960Y643893D01*
X315881Y643963D01*
X314810Y644104D01*
X313750Y644315D01*
X312706Y644595D01*
X311682Y644942D01*
X310684Y645356D01*
X309714Y645834D01*
X308778Y646374D01*
X307880Y646975D01*
X307022Y647633D01*
X306210Y648345D01*
X305445Y649110D01*
X304733Y649922D01*
X304075Y650780D01*
X303474Y651678D01*
X302934Y652614D01*
X302456Y653584D01*
X302042Y654582D01*
X301695Y655606D01*
X301415Y656650D01*
X301204Y657710D01*
X301063Y658781D01*
X300993Y659860D01*
X300993Y660940D01*
X301063Y662019D01*
X301204Y663090D01*
X301415Y664150D01*
X301695Y665194D01*
X302042Y666218D01*
X302456Y667216D01*
X302934Y668186D01*
X303474Y669122D01*
X304075Y670020D01*
X304733Y670878D01*
X305445Y671690D01*
X306210Y672455D01*
X307022Y673167D01*
X307880Y673825D01*
X308778Y674426D01*
X309714Y674966D01*
X310684Y675444D01*
X311682Y675858D01*
X312706Y676205D01*
X313750Y676485D01*
X314810Y676696D01*
X315881Y676837D01*
X316960Y676907D01*
X318040Y676907D01*
X319119Y676837D01*
X320190Y676696D01*
X321250Y676485D01*
X322294Y676205D01*
X323318Y675858D01*
X324316Y675444D01*
X325286Y674966D01*
X326222Y674426D01*
X327120Y673825D01*
X327978Y673167D01*
X328790Y672455D01*
X329555Y671690D01*
X330267Y670878D01*
X330925Y670020D01*
X331526Y669122D01*
X332066Y668186D01*
X332544Y667216D01*
X332958Y666218D01*
X333305Y665194D01*
X333585Y664150D01*
X333796Y663090D01*
X333937Y662019D01*
X334007Y660940D01*
X334007Y659860D01*
X334007Y75660D02*
X333937Y74581D01*
X333796Y73510D01*
X333585Y72450D01*
X333305Y71406D01*
X332958Y70382D01*
X332544Y69384D01*
X332066Y68414D01*
X331526Y67478D01*
X330925Y66580D01*
X330267Y65722D01*
X329555Y64910D01*
X328790Y64145D01*
X327978Y63433D01*
X327120Y62775D01*
X326222Y62174D01*
X325286Y61634D01*
X324316Y61156D01*
X323318Y60742D01*
X322294Y60395D01*
X321250Y60115D01*
X320190Y59904D01*
X319119Y59763D01*
X318040Y59693D01*
X316960Y59693D01*
X315881Y59763D01*
X314810Y59904D01*
X313750Y60115D01*
X312706Y60395D01*
X311682Y60742D01*
X310684Y61156D01*
X309714Y61634D01*
X308778Y62174D01*
X307880Y62775D01*
X307022Y63433D01*
X306210Y64145D01*
X305445Y64910D01*
X304733Y65722D01*
X304075Y66580D01*
X303474Y67478D01*
X302934Y68414D01*
X302456Y69384D01*
X302042Y70382D01*
X301695Y71406D01*
X301415Y72450D01*
X301204Y73510D01*
X301063Y74581D01*
X300993Y75660D01*
X300993Y76740D01*
X301063Y77819D01*
X301204Y78890D01*
X301415Y79950D01*
X301695Y80994D01*
X302042Y82018D01*
X302456Y83016D01*
X302934Y83986D01*
X303474Y84922D01*
X304075Y85820D01*
X304733Y86678D01*
X305445Y87490D01*
X306210Y88255D01*
X307022Y88967D01*
X307880Y89625D01*
X308778Y90226D01*
X309714Y90766D01*
X310684Y91244D01*
X311682Y91658D01*
X312706Y92005D01*
X313750Y92285D01*
X314810Y92496D01*
X315881Y92637D01*
X316960Y92707D01*
X318040Y92707D01*
X319119Y92637D01*
X320190Y92496D01*
X321250Y92285D01*
X322294Y92005D01*
X323318Y91658D01*
X324316Y91244D01*
X325286Y90766D01*
X326222Y90226D01*
X327120Y89625D01*
X327978Y88967D01*
X328790Y88255D01*
X329555Y87490D01*
X330267Y86678D01*
X330925Y85820D01*
X331526Y84922D01*
X332066Y83986D01*
X332544Y83016D01*
X332958Y82018D01*
X333305Y80994D01*
X333585Y79950D01*
X333796Y78890D01*
X333937Y77819D01*
X334007Y76740D01*
X334007Y75660D01*
X816597Y659860D02*
X816527Y658782D01*
X816386Y657711D01*
X816175Y656652D01*
X815895Y655609D01*
X815548Y654586D01*
X815135Y653588D01*
X814657Y652619D01*
X814117Y651684D01*
X813517Y650786D01*
X812859Y649929D01*
X812147Y649117D01*
X811383Y648353D01*
X810571Y647641D01*
X809714Y646983D01*
X808816Y646383D01*
X807881Y645843D01*
X806912Y645365D01*
X805914Y644952D01*
X804891Y644605D01*
X803848Y644325D01*
X802789Y644114D01*
X801718Y643973D01*
X800640Y643903D01*
X799560Y643903D01*
X798482Y643973D01*
X797411Y644114D01*
X796352Y644325D01*
X795309Y644605D01*
X794286Y644952D01*
X793288Y645365D01*
X792319Y645843D01*
X791384Y646383D01*
X790486Y646983D01*
X789629Y647641D01*
X788817Y648353D01*
X788053Y649117D01*
X787341Y649929D01*
X786683Y650786D01*
X786083Y651684D01*
X785543Y652619D01*
X785065Y653588D01*
X784652Y654586D01*
X784305Y655609D01*
X784025Y656652D01*
X783814Y657711D01*
X783673Y658782D01*
X783603Y659860D01*
X783603Y660940D01*
X783673Y662018D01*
X783814Y663089D01*
X784025Y664148D01*
X784305Y665191D01*
X784652Y666214D01*
X785065Y667212D01*
X785543Y668181D01*
X786083Y669116D01*
X786683Y670014D01*
X787341Y670871D01*
X788053Y671683D01*
X788817Y672447D01*
X789629Y673159D01*
X790486Y673817D01*
X791384Y674417D01*
X792319Y674957D01*
X793288Y675435D01*
X794286Y675848D01*
X795309Y676195D01*
X796352Y676475D01*
X797411Y676686D01*
X798482Y676827D01*
X799560Y676897D01*
X800640Y676897D01*
X801718Y676827D01*
X802789Y676686D01*
X803848Y676475D01*
X804891Y676195D01*
X805914Y675848D01*
X806912Y675435D01*
X807881Y674957D01*
X808816Y674417D01*
X809714Y673817D01*
X810571Y673159D01*
X811383Y672447D01*
X812147Y671683D01*
X812859Y670871D01*
X813517Y670014D01*
X814117Y669116D01*
X814657Y668181D01*
X815135Y667212D01*
X815548Y666214D01*
X815895Y665191D01*
X816175Y664148D01*
X816386Y663089D01*
X816527Y662018D01*
X816597Y660940D01*
X816597Y659860D01*
X816607Y75660D02*
X816537Y74581D01*
X816396Y73510D01*
X816185Y72450D01*
X815905Y71406D01*
X815558Y70382D01*
X815144Y69384D01*
X814666Y68414D01*
X814126Y67478D01*
X813525Y66580D01*
X812867Y65722D01*
X812155Y64910D01*
X811390Y64145D01*
X810578Y63433D01*
X809720Y62775D01*
X808822Y62174D01*
X807886Y61634D01*
X806916Y61156D01*
X805918Y60742D01*
X804894Y60395D01*
X803850Y60115D01*
X802790Y59904D01*
X801719Y59763D01*
X800640Y59693D01*
X799560Y59693D01*
X798481Y59763D01*
X797410Y59904D01*
X796350Y60115D01*
X795306Y60395D01*
X794282Y60742D01*
X793284Y61156D01*
X792314Y61634D01*
X791378Y62174D01*
X790480Y62775D01*
X789622Y63433D01*
X788810Y64145D01*
X788045Y64910D01*
X787333Y65722D01*
X786675Y66580D01*
X786074Y67478D01*
X785534Y68414D01*
X785056Y69384D01*
X784642Y70382D01*
X784295Y71406D01*
X784015Y72450D01*
X783804Y73510D01*
X783663Y74581D01*
X783593Y75660D01*
X783593Y76740D01*
X783663Y77819D01*
X783804Y78890D01*
X784015Y79950D01*
X784295Y80994D01*
X784642Y82018D01*
X785056Y83016D01*
X785534Y83986D01*
X786074Y84922D01*
X786675Y85820D01*
X787333Y86678D01*
X788045Y87490D01*
X788810Y88255D01*
X789622Y88967D01*
X790480Y89625D01*
X791378Y90226D01*
X792314Y90766D01*
X793284Y91244D01*
X794282Y91658D01*
X795306Y92005D01*
X796350Y92285D01*
X797410Y92496D01*
X798481Y92637D01*
X799560Y92707D01*
X800640Y92707D01*
X801719Y92637D01*
X802790Y92496D01*
X803850Y92285D01*
X804894Y92005D01*
X805918Y91658D01*
X806916Y91244D01*
X807886Y90766D01*
X808822Y90226D01*
X809720Y89625D01*
X810578Y88967D01*
X811390Y88255D01*
X812155Y87490D01*
X812867Y86678D01*
X813525Y85820D01*
X814126Y84922D01*
X814666Y83986D01*
X815144Y83016D01*
X815558Y82018D01*
X815905Y80994D01*
X816185Y79950D01*
X816396Y78890D01*
X816537Y77819D01*
X816607Y76740D01*
X816607Y75660D01*
X647294Y664845D02*
X646487Y664925D01*
X645692Y665083D01*
X644916Y665318D01*
X644166Y665629D01*
X643451Y666011D01*
X642777Y666462D01*
X642150Y666976D01*
X641576Y667550D01*
X641062Y668177D01*
X640611Y668851D01*
X640229Y669566D01*
X639918Y670316D01*
X639683Y671092D01*
X639525Y671887D01*
X639445Y672694D01*
X639445Y673506D01*
X639525Y674313D01*
X639683Y675108D01*
X639918Y675884D01*
X640229Y676634D01*
X640611Y677349D01*
X641062Y678023D01*
X641576Y678650D01*
X642150Y679224D01*
X642777Y679738D01*
X643451Y680189D01*
X644166Y680571D01*
X644916Y680882D01*
X645692Y681117D01*
X646487Y681276D01*
X647294Y681355D01*
X648106Y681355D01*
X648913Y681276D01*
X649708Y681117D01*
X650484Y680882D01*
X651234Y680571D01*
X651949Y680189D01*
X652623Y679738D01*
X653250Y679224D01*
X653824Y678650D01*
X654338Y678023D01*
X654789Y677349D01*
X655171Y676634D01*
X655482Y675884D01*
X655717Y675108D01*
X655876Y674313D01*
X655955Y673506D01*
X655955Y672694D01*
X655876Y671887D01*
X655717Y671092D01*
X655482Y670316D01*
X655171Y669566D01*
X654789Y668851D01*
X654338Y668177D01*
X653824Y667550D01*
X653250Y666976D01*
X652623Y666462D01*
X651949Y666011D01*
X651234Y665629D01*
X650484Y665318D01*
X649708Y665083D01*
X648913Y664925D01*
X648106Y664845D01*
X647294Y664845D01*
X494894Y664845D02*
X494087Y664925D01*
X493292Y665083D01*
X492516Y665318D01*
X491766Y665629D01*
X491051Y666011D01*
X490377Y666462D01*
X489750Y666976D01*
X489176Y667550D01*
X488662Y668177D01*
X488211Y668851D01*
X487829Y669566D01*
X487518Y670316D01*
X487283Y671092D01*
X487125Y671887D01*
X487045Y672694D01*
X487045Y673506D01*
X487125Y674313D01*
X487283Y675108D01*
X487518Y675884D01*
X487829Y676634D01*
X488211Y677349D01*
X488662Y678023D01*
X489176Y678650D01*
X489750Y679224D01*
X490377Y679738D01*
X491051Y680189D01*
X491766Y680571D01*
X492516Y680882D01*
X493292Y681117D01*
X494087Y681276D01*
X494894Y681355D01*
X495706Y681355D01*
X496513Y681276D01*
X497308Y681117D01*
X498084Y680882D01*
X498834Y680571D01*
X499549Y680189D01*
X500223Y679738D01*
X500850Y679224D01*
X501424Y678650D01*
X501938Y678023D01*
X502389Y677349D01*
X502771Y676634D01*
X503082Y675884D01*
X503317Y675108D01*
X503476Y674313D01*
X503555Y673506D01*
X503555Y672694D01*
X503476Y671887D01*
X503317Y671092D01*
X503082Y670316D01*
X502771Y669566D01*
X502389Y668851D01*
X501938Y668177D01*
X501424Y667550D01*
X500850Y666976D01*
X500223Y666462D01*
X499549Y666011D01*
X498834Y665629D01*
X498084Y665318D01*
X497308Y665083D01*
X496513Y664925D01*
X495706Y664845D01*
X494894Y664845D01*
X494894Y258445D02*
X494087Y258525D01*
X493292Y258683D01*
X492516Y258918D01*
X491766Y259229D01*
X491051Y259611D01*
X490377Y260062D01*
X489750Y260576D01*
X489176Y261150D01*
X488662Y261777D01*
X488211Y262451D01*
X487829Y263166D01*
X487518Y263916D01*
X487283Y264692D01*
X487125Y265487D01*
X487045Y266294D01*
X487045Y267106D01*
X487125Y267913D01*
X487283Y268708D01*
X487518Y269484D01*
X487829Y270234D01*
X488211Y270949D01*
X488662Y271623D01*
X489176Y272250D01*
X489750Y272824D01*
X490377Y273338D01*
X491051Y273789D01*
X491766Y274171D01*
X492516Y274482D01*
X493292Y274717D01*
X494087Y274876D01*
X494894Y274955D01*
X495706Y274955D01*
X496513Y274876D01*
X497308Y274717D01*
X498084Y274482D01*
X498834Y274171D01*
X499549Y273789D01*
X500223Y273338D01*
X500850Y272824D01*
X501424Y272250D01*
X501938Y271623D01*
X502389Y270949D01*
X502771Y270234D01*
X503082Y269484D01*
X503317Y268708D01*
X503476Y267913D01*
X503555Y267106D01*
X503555Y266294D01*
X503476Y265487D01*
X503317Y264692D01*
X503082Y263916D01*
X502771Y263166D01*
X502389Y262451D01*
X501938Y261777D01*
X501424Y261150D01*
X500850Y260576D01*
X500223Y260062D01*
X499549Y259611D01*
X498834Y259229D01*
X498084Y258918D01*
X497308Y258683D01*
X496513Y258525D01*
X495706Y258445D01*
X494894Y258445D01*
X647294Y258445D02*
X646487Y258525D01*
X645692Y258683D01*
X644916Y258918D01*
X644166Y259229D01*
X643451Y259611D01*
X642777Y260062D01*
X642150Y260576D01*
X641576Y261150D01*
X641062Y261777D01*
X640611Y262451D01*
X640229Y263166D01*
X639918Y263916D01*
X639683Y264692D01*
X639525Y265487D01*
X639445Y266294D01*
X639445Y267106D01*
X639525Y267913D01*
X639683Y268708D01*
X639918Y269484D01*
X640229Y270234D01*
X640611Y270949D01*
X641062Y271623D01*
X641576Y272250D01*
X642150Y272824D01*
X642777Y273338D01*
X643451Y273789D01*
X644166Y274171D01*
X644916Y274482D01*
X645692Y274717D01*
X646487Y274876D01*
X647294Y274955D01*
X648106Y274955D01*
X648913Y274876D01*
X649708Y274717D01*
X650484Y274482D01*
X651234Y274171D01*
X651949Y273789D01*
X652623Y273338D01*
X653250Y272824D01*
X653824Y272250D01*
X654338Y271623D01*
X654789Y270949D01*
X655171Y270234D01*
X655482Y269484D01*
X655717Y268708D01*
X655876Y267913D01*
X655955Y267106D01*
X655955Y266294D01*
X655876Y265487D01*
X655717Y264692D01*
X655482Y263916D01*
X655171Y263166D01*
X654789Y262451D01*
X654338Y261777D01*
X653824Y261150D01*
X653250Y260576D01*
X652623Y260062D01*
X651949Y259611D01*
X651234Y259229D01*
X650484Y258918D01*
X649708Y258683D01*
X648913Y258525D01*
X648106Y258445D01*
X647294Y258445D01*
M02*
