G04 EAGLE Gerber RS-274X export*
G75*
%MOMM*%
%FSLAX34Y34*%
%LPD*%
%INSoldermask Bottom*%
%IPPOS*%
%AMOC8*
5,1,8,0,0,1.08239X$1,22.5*%
G01*
%ADD10C,3.504691*%
%ADD11C,3.502659*%
%ADD12P,1.649562X8X112.500000*%
%ADD13C,1.524000*%
%ADD14P,1.649562X8X22.500000*%
%ADD15C,1.879600*%
%ADD16R,1.711200X1.711200*%
%ADD17C,1.711200*%
%ADD18C,1.854200*%
%ADD19R,1.511200X1.511200*%
%ADD20C,1.511200*%
%ADD21R,1.561200X1.561200*%
%ADD22C,1.561200*%


D10*
X317500Y660400D03*
X317500Y76200D03*
D11*
X800100Y660400D03*
D10*
X800100Y76200D03*
D12*
X698500Y607060D03*
D13*
X698500Y586740D03*
D14*
X685800Y660400D03*
X711200Y660400D03*
D15*
X685800Y533400D03*
X685800Y431800D03*
X711200Y381000D03*
X711200Y279400D03*
D16*
X647700Y292100D03*
D17*
X647700Y317500D03*
X647700Y342900D03*
X647700Y368300D03*
X647700Y393700D03*
X647700Y419100D03*
X647700Y444500D03*
X647700Y469900D03*
X647700Y495300D03*
X647700Y520700D03*
X647700Y546100D03*
X647700Y571500D03*
X495300Y292100D03*
X495300Y317500D03*
X495300Y342900D03*
X495300Y368300D03*
X495300Y393700D03*
X495300Y419100D03*
X495300Y469900D03*
X495300Y495300D03*
X495300Y546100D03*
X495300Y571500D03*
X495300Y520700D03*
X495300Y444500D03*
X647700Y596900D03*
X647700Y622300D03*
X647700Y647700D03*
X495300Y596900D03*
X495300Y622300D03*
X495300Y647700D03*
D18*
X647700Y673100D03*
X495300Y673100D03*
X495300Y266700D03*
X647700Y266700D03*
D19*
X787400Y546100D03*
D20*
X787400Y571500D03*
D19*
X622300Y88900D03*
D20*
X647700Y88900D03*
D19*
X508000Y88900D03*
D20*
X533400Y88900D03*
D19*
X774700Y393700D03*
D20*
X774700Y368300D03*
X774700Y342900D03*
X774700Y317500D03*
X774700Y292100D03*
X774700Y266700D03*
X774700Y241300D03*
X774700Y215900D03*
X774700Y190500D03*
X774700Y165100D03*
D19*
X787400Y457200D03*
D20*
X787400Y482600D03*
D19*
X330200Y469900D03*
D20*
X330200Y444500D03*
D21*
X558800Y431800D03*
D22*
X584200Y431800D03*
X584200Y508000D03*
X558800Y508000D03*
D21*
X558800Y279400D03*
D22*
X584200Y279400D03*
X584200Y355600D03*
X558800Y355600D03*
D19*
X342900Y292100D03*
D20*
X342900Y317500D03*
X342900Y342900D03*
X342900Y368300D03*
D12*
X635000Y152400D03*
X635000Y228600D03*
X520700Y152400D03*
X520700Y228600D03*
D15*
X685800Y228600D03*
X685800Y127000D03*
X571500Y228600D03*
X571500Y127000D03*
D19*
X419100Y508000D03*
D20*
X419100Y482600D03*
D19*
X419100Y622300D03*
D20*
X419100Y596900D03*
D19*
X330200Y215900D03*
D20*
X330200Y190500D03*
X330200Y165100D03*
D21*
X558800Y571500D03*
D22*
X584200Y571500D03*
X584200Y647700D03*
X558800Y647700D03*
D12*
X406400Y152400D03*
X406400Y228600D03*
D15*
X457200Y228600D03*
X457200Y127000D03*
D19*
X393700Y88900D03*
D20*
X419100Y88900D03*
D19*
X330200Y584200D03*
D20*
X330200Y558800D03*
M02*
