M48
;GenerationSoftware,Autodesk,EAGLE,9.6.2*%
;CreationDate,2020-06-20T03:24:06Z*%
FMAT,2
ICI,OFF
METRIC,TZ,000.000
T9C0.800
T8C0.813
T7C0.850
T6C1.000
T5C1.118
T4C1.651
T3C3.299
T2C3.301
%
G90
M71
T2
X31750Y66040
X31750Y7620
X80010Y7620
T3
X80010Y66040
T4
X49530Y67310
X49530Y26670
X64770Y26670
X64770Y67310
T5
X45720Y22860
X45720Y12700
X71120Y27940
X71120Y38100
X68580Y43180
X57150Y12700
X57150Y22860
X68580Y53340
X68580Y12700
X68580Y22860
T6
X49530Y39370
X49530Y41910
X49530Y46990
X49530Y49530
X49530Y54610
X49530Y57150
X49530Y52070
X49530Y44450
X64770Y62230
X64770Y64770
X49530Y59690
X49530Y62230
X49530Y64770
X64770Y59690
X64770Y39370
X49530Y36830
X64770Y29210
X64770Y31750
X64770Y34290
X64770Y36830
X64770Y41910
X64770Y44450
X64770Y46990
X64770Y49530
X64770Y52070
X64770Y54610
X64770Y57150
X49530Y29210
X49530Y31750
X49530Y34290
T7
X55880Y35560
X58420Y57150
X58420Y35560
X58420Y27940
X55880Y27940
X55880Y50800
X58420Y50800
X58420Y43180
X55880Y43180
X55880Y57150
X58420Y64770
X55880Y64770
T8
X40640Y22860
X52070Y15240
X63500Y22860
X63500Y15240
X52070Y22860
X69850Y60706
X69850Y58674
X68580Y66040
X40640Y15240
X71120Y66040
T9
X39370Y8890
X41910Y8890
X33020Y58420
X33020Y55880
X41910Y50800
X41910Y48260
X41910Y62230
X41910Y59690
X33020Y21590
X33020Y19050
X33020Y16510
X77470Y26670
X78740Y54610
X78740Y57150
X62230Y8890
X64770Y8890
X50800Y8890
X53340Y8890
X77470Y39370
X77470Y36830
X77470Y34290
X77470Y31750
X77470Y29210
X34290Y36830
X77470Y24130
X77470Y21590
X77470Y19050
X77470Y16510
X78740Y45720
X78740Y48260
X33020Y46990
X33020Y44450
X34290Y29210
X34290Y31750
X34290Y34290
M30